<svg xmlns="http://www.w3.org/2000/svg" xmlns:xlink="http://www.w3.org/1999/xlink" width="98.167" height="98.168" viewBox="0 0 98.167 98.168">
  <defs>
    <filter id="Trazado_874925" x="0" y="0" width="98.167" height="98.168" filterUnits="userSpaceOnUse">
      <feOffset dy="3" input="SourceAlpha"/>
      <feGaussianBlur stdDeviation="3" result="blur"/>
      <feFlood flood-opacity="0.161"/>
      <feComposite operator="in" in2="blur"/>
      <feComposite in="SourceGraphic"/>
    </filter>
  </defs>
  <g id="Grupo_1119207" data-name="Grupo 1119207" transform="translate(-303.799 -9703)">
    <g id="Grupo_1119206" data-name="Grupo 1119206" transform="translate(2403.799 19513)">
      <g id="Grupo_1111552" data-name="Grupo 1111552" transform="translate(-2091 -9804)">
        <g id="Grupo_1111316" data-name="Grupo 1111316" transform="translate(0 0)" style="isolation: isolate">
          <g transform="matrix(1, 0, 0, 1, -9, -6)" filter="url(#Trazado_874925)">
            <g id="Trazado_874925-2" data-name="Trazado 874925" transform="translate(9 6)" fill="#9cc8ff">
              <path d="M 40.08364105224609 78.66762542724609 C 34.87421798706055 78.66762542724609 29.82141876220703 77.64768981933594 25.06560707092285 75.63614654541016 C 20.47127532958984 73.69290924072266 16.34481811523438 70.91069030761719 12.80088520050049 67.36676025390625 C 9.256940841674805 63.82282257080078 6.47470760345459 59.69638061523438 4.531474590301514 55.10205841064453 C 2.519929885864258 50.34624481201172 1.499996662139893 45.29345703125 1.499996662139893 40.08404541015625 C 1.499996662139893 34.87416839599609 2.519929885864258 29.82137870788574 4.531474590301514 25.0655689239502 C 6.47470760345459 20.47124671936035 9.256940841674805 16.34480094909668 12.80088520050049 12.80086803436279 C 16.34481811523438 9.256935119628906 20.47127532958984 6.47471284866333 25.06560707092285 4.531479358673096 C 29.82141876220703 2.519934892654419 34.87421798706055 1.500001549720764 40.08364105224609 1.500001549720764 C 45.29306411743164 1.500001549720764 50.34586334228516 2.519934892654419 55.1016731262207 4.531479358673096 C 59.69600677490234 6.47471284866333 63.82246398925781 9.256935119628906 67.36639404296875 12.80086803436279 C 70.91033935546875 16.34480094909668 73.69257354736328 20.47124671936035 75.63581085205078 25.0655689239502 C 77.64735412597656 29.82137870788574 78.66728210449219 34.87416839599609 78.66728210449219 40.08358001708984 C 78.66728210449219 45.29345703125 77.64735412597656 50.34624481201172 75.63581085205078 55.10205841064453 C 73.69257354736328 59.69638061523438 70.91033935546875 63.82282257080078 67.36639404296875 67.36676025390625 C 63.82246398925781 70.91069030761719 59.69600677490234 73.69290924072266 55.1016731262207 75.63614654541016 C 50.34586334228516 77.64768981933594 45.29306411743164 78.66762542724609 40.08364105224609 78.66762542724609 Z" stroke="none"/>
              <path d="M 40.08364105224609 3 C 35.07605361938477 3 30.21985626220703 3.980064392089844 25.64993286132812 5.912986755371094 C 21.23440170288086 7.780586242675781 17.26821517944336 10.45486450195312 13.86154937744141 13.86153411865234 C 10.45487976074219 17.26818466186523 7.780601501464844 21.23437118530273 5.912986755371094 25.64990615844727 C 3.980064392089844 30.21981430053711 3 35.07601165771484 3 40.08403778076172 C 3 45.09161376953125 3.980064392089844 49.94779968261719 5.912986755371094 54.51771926879883 C 7.780601501464844 58.93325042724609 10.45487976074219 62.8994255065918 13.86154937744141 66.30609130859375 C 17.26821517944336 69.71274566650391 21.23440170288086 72.38702392578125 25.64993286132812 74.254638671875 C 30.21985626220703 76.18756103515625 35.07605361938477 77.16762542724609 40.08364105224609 77.16762542724609 C 45.09122848510742 77.16762542724609 49.94742584228516 76.18756103515625 54.51734924316406 74.254638671875 C 58.93288040161133 72.38702392578125 62.89906692504883 69.71274566650391 66.30573272705078 66.30609130859375 C 69.71240234375 62.8994255065918 72.38668060302734 58.93325042724609 74.25429534912109 54.51771926879883 C 76.18721771240234 49.94779968261719 77.16728210449219 45.09161376953125 77.16728210449219 40.08358764648438 C 77.16728210449219 35.07601165771484 76.18721771240234 30.21981430053711 74.25429534912109 25.64990615844727 C 72.38668060302734 21.23437118530273 69.71240234375 17.26818466186523 66.30573272705078 13.86153411865234 C 62.89906692504883 10.45486450195312 58.93288040161133 7.780586242675781 54.51734924316406 5.912986755371094 C 49.94742584228516 3.980064392089844 45.09122848510742 3 40.08364105224609 3 M 40.08364105224609 0 C 62.22122955322266 0 80.16728210449219 17.94602584838867 80.16728210449219 40.08358764648438 L 80.16728210449219 40.08403778076172 C 80.16728210449219 62.22158813476562 62.22122955322266 80.16762542724609 40.08364105224609 80.16762542724609 C 17.94605255126953 80.16762542724609 0 62.22158813476562 0 40.08403778076172 L 0 40.08358764648438 C 0 17.94602584838867 17.94605255126953 0 40.08364105224609 0 Z" stroke="none" fill="#fff"/>
            </g>
          </g>
          <g id="Trazado_874923" data-name="Trazado 874923" fill="none">
            <path d="M40.084,0A40.084,40.084,0,0,1,80.167,40.084h0A40.084,40.084,0,0,1,0,40.084H0A40.084,40.084,0,0,1,40.084,0Z" stroke="none"/>
            <path d="M 40.08364105224609 3 C 35.07605361938477 3 30.21985626220703 3.980064392089844 25.64993286132812 5.912986755371094 C 21.23440170288086 7.780586242675781 17.26821517944336 10.45486450195312 13.86154937744141 13.86153411865234 C 10.45487976074219 17.26818466186523 7.780601501464844 21.23437118530273 5.912986755371094 25.64990615844727 C 3.980064392089844 30.21981430053711 3 35.07601165771484 3 40.08403778076172 C 3 45.09161376953125 3.980064392089844 49.94779968261719 5.912986755371094 54.51771926879883 C 7.780601501464844 58.93325042724609 10.45487976074219 62.8994255065918 13.86154937744141 66.30609130859375 C 17.26821517944336 69.71274566650391 21.23440170288086 72.38702392578125 25.64993286132812 74.254638671875 C 30.21985626220703 76.18756103515625 35.07605361938477 77.16762542724609 40.08364105224609 77.16762542724609 C 45.09122848510742 77.16762542724609 49.94742584228516 76.18756103515625 54.51734924316406 74.254638671875 C 58.93288040161133 72.38702392578125 62.89906692504883 69.71274566650391 66.30573272705078 66.30609130859375 C 69.71240234375 62.8994255065918 72.38668060302734 58.93325042724609 74.25429534912109 54.51771926879883 C 76.18721771240234 49.94779968261719 77.16728210449219 45.09161376953125 77.16728210449219 40.08358764648438 C 77.16728210449219 35.07601165771484 76.18721771240234 30.21981430053711 74.25429534912109 25.64990615844727 C 72.38668060302734 21.23437118530273 69.71240234375 17.26818466186523 66.30573272705078 13.86153411865234 C 62.89906692504883 10.45486450195312 58.93288040161133 7.780586242675781 54.51734924316406 5.912986755371094 C 49.94742584228516 3.980064392089844 45.09122848510742 3 40.08364105224609 3 M 40.08364105224609 0 C 62.22122955322266 0 80.16728210449219 17.94602584838867 80.16728210449219 40.08358764648438 L 80.16728210449219 40.08403778076172 C 80.16728210449219 62.22158813476562 62.22122955322266 80.16762542724609 40.08364105224609 80.16762542724609 C 17.94605255126953 80.16762542724609 0 62.22158813476562 0 40.08403778076172 L 0 40.08358764648438 C 0 17.94602584838867 17.94605255126953 0 40.08364105224609 0 Z" stroke="none" fill="#fff"/>
          </g>
        </g>
      </g>
      <g id="_11-best_price" data-name="11-best price" transform="translate(-2076.57 -9789.569)">
        <circle id="Elipse_11751" data-name="Elipse 11751" cx="17" cy="17" r="17" transform="translate(16.654 0.654)" fill="#ebd557"/>
        <circle id="Elipse_11752" data-name="Elipse 11752" cx="13" cy="13" r="13" transform="translate(20.654 4.654)" fill="#fcea81"/>
        <path id="Trazado_916646" data-name="Trazado 916646" d="M41.215,16.223h-1.6a2.405,2.405,0,0,1,0-4.81h5.612a1.6,1.6,0,1,0,0-3.207H42.017V5H38.81V8.271a5.612,5.612,0,0,0,.8,11.159h1.6a2.405,2.405,0,0,1,0,4.81H35.6a1.6,1.6,0,1,0,0,3.207H38.81v3.207h3.207V27.383a5.612,5.612,0,0,0-.8-11.159Z" transform="translate(-6.743 -0.991)" fill="#d7986c"/>
        <path id="Trazado_916647" data-name="Trazado 916647" d="M32.645,41.034h-.8a2.405,2.405,0,1,1,0,4.81h-.8a2.405,2.405,0,0,1,0,4.81h-.8a2.405,2.405,0,1,1,0,4.81H16.612L11,53.86V39.43c2.405,0,4.008-3.207,4.008-3.207L18.215,25s4.008,0,4.008,4.81l-.8,6.413H32.645a2.405,2.405,0,0,1,0,4.81Z" transform="translate(-2.182 -4.957)" fill="#e7cea0"/>
        <path id="Trazado_916648" data-name="Trazado 916648" d="M1,41H9.017V58.637H1Z" transform="translate(-0.198 -8.13)" fill="#7bace6"/>
        <path id="Trazado_916649" data-name="Trazado 916649" d="M33.67,38.43a3.207,3.207,0,0,0-3.207-3.207H20.146l.7-5.516a.393.393,0,0,0,0-.1C20.844,25.17,17.7,24,16.034,24a.8.8,0,0,0-.8.585L12.025,35.72A6.149,6.149,0,0,1,9.62,38.262v-.633a.8.8,0,0,0-.8-.8H.8a.8.8,0,0,0-.8.8V55.265a.8.8,0,0,0,.8.8H8.818a.8.8,0,0,0,.8-.8v-.537l4.594,1.339a.641.641,0,0,0,.216,0H28.059a3.207,3.207,0,0,0,2.405-5.275,3.207,3.207,0,0,0,.8-4.81,3.207,3.207,0,0,0,.8-4.81A3.207,3.207,0,0,0,33.67,38.43ZM8.017,54.464H1.6V38.43H8.017Zm20.042,0H14.542l-4.922-1.4V39.937c2.405-.553,3.856-3.415,3.92-3.551a1.074,1.074,0,0,0,.056-.144l3.022-10.566c.938.208,2.605.986,2.621,3.888l-.8,6.365a.8.8,0,0,0,.8.9H30.464a1.6,1.6,0,1,1,0,3.207H26.455a.8.8,0,0,0,0,1.6h3.207a1.6,1.6,0,1,1,0,3.207H25.654a.8.8,0,0,0,0,1.6H28.86a1.6,1.6,0,1,1,0,3.207H24.852a.8.8,0,1,0,0,1.6h3.207a1.6,1.6,0,1,1,0,3.207Z" transform="translate(0 -4.759)"/>
        <path id="Trazado_916650" data-name="Trazado 916650" d="M12.8,14.207h.8v.8a.8.8,0,1,0,1.6,0v-.8h.8a.8.8,0,1,0,0-1.6h-.8v-.8a.8.8,0,1,0-1.6,0v.8h-.8a.8.8,0,0,0,0,1.6Z" transform="translate(-2.38 -2.181)"/>
        <path id="Trazado_916651" data-name="Trazado 916651" d="M53.008,49.6h-.8v-.8a.8.8,0,0,0-1.6,0v.8h-.8a.8.8,0,0,0,0,1.6h.8v.8a.8.8,0,1,0,1.6,0v-.8h.8a.8.8,0,0,0,0-1.6Z" transform="translate(-9.718 -9.518)"/>
        <path id="Trazado_916652" data-name="Trazado 916652" d="M37.637,0A17.637,17.637,0,0,0,20,17.637a.8.8,0,0,0,1.6,0A16.034,16.034,0,1,1,40.691,33.382a.805.805,0,0,0,.152,1.6H41A17.637,17.637,0,0,0,37.637,0Z" transform="translate(-3.966 0.001)"/>
        <path id="Trazado_916653" data-name="Trazado 916653" d="M47.43,21.637a6.413,6.413,0,0,0-6.413-6.413h-1.6a1.6,1.6,0,1,1,0-3.207h5.612a2.405,2.405,0,0,0,0-4.81H42.62V4.8a.8.8,0,0,0-.8-.8H38.612a.8.8,0,0,0-.8.8V7.415a6.413,6.413,0,0,0,1.6,12.618h1.6a1.6,1.6,0,0,1,0,3.207H35.405a2.405,2.405,0,1,0,0,4.81H37.81v2.405a.8.8,0,0,0,.8.8h3.207a.8.8,0,0,0,.8-.8V27.842a6.413,6.413,0,0,0,4.81-6.2Zm-5.724,4.754a.8.8,0,0,0-.689.8v2.461h-1.6V27.249a.8.8,0,0,0-.8-.8H35.405a.8.8,0,1,1,0-1.6h5.612a3.207,3.207,0,0,0,0-6.413h-1.6a4.81,4.81,0,0,1-.689-9.564.8.8,0,0,0,.689-.8V5.6h1.6V8.008a.8.8,0,0,0,.8.8h3.207a.8.8,0,1,1,0,1.6H39.413a3.207,3.207,0,0,0,0,6.413h1.6a4.81,4.81,0,0,1,.689,9.564Z" transform="translate(-6.545 -0.792)"/>
      </g>
    </g>
  </g>
</svg>
