<svg xmlns="http://www.w3.org/2000/svg" xmlns:xlink="http://www.w3.org/1999/xlink" width="117.999" height="118" viewBox="0 0 117.999 118">
  <defs>
    <filter id="Trazado_874925" x="0" y="0" width="117.999" height="118" filterUnits="userSpaceOnUse">
      <feOffset dy="3" input="SourceAlpha"/>
      <feGaussianBlur stdDeviation="3" result="blur"/>
      <feFlood flood-opacity="0.161"/>
      <feComposite operator="in" in2="blur"/>
      <feComposite in="SourceGraphic"/>
    </filter>
    <clipPath id="clip-path">
      <path id="Trazado_909641" data-name="Trazado 909641" d="M46.9,0a46.9,46.9,0,0,1,46.9,46.9h0a46.9,46.9,0,0,1-93.81,0H0A46.9,46.9,0,0,1,46.9,0Z" transform="translate(861.146 5160.095)" fill="#9ad354"/>
    </clipPath>
  </defs>
  <g id="Grupo_1117972" data-name="Grupo 1117972" transform="translate(-849.051 -5151)">
    <g id="Grupo_1111552" data-name="Grupo 1111552" transform="translate(858.051 5157)">
      <g id="Grupo_1111316" data-name="Grupo 1111316" transform="translate(0 0)">
        <g id="Grupo_1109835" data-name="Grupo 1109835" transform="translate(0 0)">
          <g id="Grupo_1107913" data-name="Grupo 1107913" transform="translate(0 0)">
            <g transform="matrix(1, 0, 0, 1, -9, -6)" filter="url(#Trazado_874925)">
              <g id="Trazado_874925-2" data-name="Trazado 874925" transform="translate(9 6)" fill="#e2dacc" opacity="0.859">
                <path d="M 49.99972534179688 98.4998779296875 C 43.45164108276367 98.4998779296875 37.10022354125977 97.21776580810547 31.12189674377441 94.68914794921875 C 25.34676742553711 92.24647521972656 20.15985298156738 88.74925994873047 15.70523929595947 84.29464721679688 C 11.25062561035156 79.84004974365234 7.753411293029785 74.65313720703125 5.310725212097168 68.87800598144531 C 2.782111167907715 62.89969253540039 1.499996781349182 56.54829406738281 1.499996781349182 50.00022125244141 C 1.499996781349182 43.45157623291016 2.782111167907715 37.10017776489258 5.310725212097168 31.12186431884766 C 7.753411293029785 25.34673500061035 11.25062561035156 20.15983581542969 15.70523929595947 15.70522117614746 C 20.15985298156738 11.25062084197998 25.34676742553711 7.753406524658203 31.12189674377441 5.31073522567749 C 37.10022354125977 2.782120943069458 43.45164108276367 1.500006556510925 49.99972534179688 1.500006556510925 C 56.54780960083008 1.500006556510925 62.89922714233398 2.782120943069458 68.87755584716797 5.31073522567749 C 74.65267944335938 7.753406524658203 79.839599609375 11.25062084197998 84.29421234130859 15.70522117614746 C 88.74882507324219 20.15983581542969 92.24604034423828 25.34673500061035 94.68872833251953 31.12186431884766 C 97.21733856201172 37.10017776489258 98.49945068359375 43.45157623291016 98.49945068359375 49.99964904785156 C 98.49945068359375 56.54829406738281 97.21733856201172 62.89969253540039 94.68872833251953 68.87800598144531 C 92.24604034423828 74.65313720703125 88.74882507324219 79.84004974365234 84.29421234130859 84.29464721679688 C 79.839599609375 88.74925994873047 74.65267944335938 92.24647521972656 68.87755584716797 94.68914794921875 C 62.89922714233398 97.21776580810547 56.54780960083008 98.4998779296875 49.99972534179688 98.4998779296875 Z" stroke="none"/>
                <path d="M 49.99972534179688 3 C 43.65348052978516 3 37.49866485595703 4.242240905761719 31.70623016357422 6.692230224609375 C 26.10989379882812 9.059272766113281 21.08323669433594 12.44853210449219 16.76589202880859 16.76587677001953 C 12.44855499267578 21.08321380615234 9.059295654296875 26.10985565185547 6.692230224609375 31.70618438720703 C 4.24224853515625 37.49859619140625 3 43.65341186523438 3 50.00022888183594 C 3 56.34645843505859 4.24224853515625 62.50127410888672 6.692230224609375 68.29368591308594 C 9.059295654296875 73.8900146484375 12.44855499267578 78.91665649414062 16.76589202880859 83.23399353027344 C 21.08323669433594 87.55132293701172 26.10989379882812 90.94059753417969 31.70623016357422 93.30764007568359 C 37.49866485595703 95.75762939453125 43.65348052978516 96.99987030029297 49.99972534179688 96.99987030029297 C 56.34597015380859 96.99987030029297 62.50078582763672 95.75762939453125 68.293212890625 93.30764007568359 C 73.88955688476562 90.94059753417969 78.91621398925781 87.55132293701172 83.23355865478516 83.23399353027344 C 87.55089569091797 78.91665649414062 90.94015502929688 73.8900146484375 93.30722045898438 68.29368591308594 C 95.7572021484375 62.50127410888672 96.99945068359375 56.34645843505859 96.99945068359375 49.99964141845703 C 96.99945068359375 43.65341186523438 95.7572021484375 37.49859619140625 93.30722045898438 31.70618438720703 C 90.94015502929688 26.10985565185547 87.55089569091797 21.08321380615234 83.23355865478516 16.76587677001953 C 78.91621398925781 12.44853210449219 73.88955688476562 9.059272766113281 68.293212890625 6.692230224609375 C 62.50078582763672 4.242240905761719 56.34597015380859 3 49.99972534179688 3 M 49.99972534179688 0 C 77.61381530761719 0 99.99945068359375 22.38559722900391 99.99945068359375 49.99964141845703 L 99.99945068359375 50.00022888183594 C 99.99945068359375 77.6142578125 77.61381530761719 99.99987030029297 49.99972534179688 99.99987030029297 C 22.38563537597656 99.99987030029297 0 77.6142578125 0 50.00022888183594 L 0 49.99964141845703 C 0 22.38559722900391 22.38563537597656 0 49.99972534179688 0 Z" stroke="none" fill="#fff"/>
              </g>
            </g>
            <g id="Trazado_874923" data-name="Trazado 874923" fill="none">
              <path d="M50,0a50,50,0,0,1,50,50h0A50,50,0,0,1,0,50H0A50,50,0,0,1,50,0Z" stroke="none"/>
              <path d="M 49.99972534179688 3 C 43.65348052978516 3 37.49866485595703 4.242240905761719 31.70623016357422 6.692230224609375 C 26.10989379882812 9.059272766113281 21.08323669433594 12.44853210449219 16.76589202880859 16.76587677001953 C 12.44855499267578 21.08321380615234 9.059295654296875 26.10985565185547 6.692230224609375 31.70618438720703 C 4.24224853515625 37.49859619140625 3 43.65341186523438 3 50.00022888183594 C 3 56.34645843505859 4.24224853515625 62.50127410888672 6.692230224609375 68.29368591308594 C 9.059295654296875 73.8900146484375 12.44855499267578 78.91665649414062 16.76589202880859 83.23399353027344 C 21.08323669433594 87.55132293701172 26.10989379882812 90.94059753417969 31.70623016357422 93.30764007568359 C 37.49866485595703 95.75762939453125 43.65348052978516 96.99987030029297 49.99972534179688 96.99987030029297 C 56.34597015380859 96.99987030029297 62.50078582763672 95.75762939453125 68.293212890625 93.30764007568359 C 73.88955688476562 90.94059753417969 78.91621398925781 87.55132293701172 83.23355865478516 83.23399353027344 C 87.55089569091797 78.91665649414062 90.94015502929688 73.8900146484375 93.30722045898438 68.29368591308594 C 95.7572021484375 62.50127410888672 96.99945068359375 56.34645843505859 96.99945068359375 49.99964141845703 C 96.99945068359375 43.65341186523438 95.7572021484375 37.49859619140625 93.30722045898438 31.70618438720703 C 90.94015502929688 26.10985565185547 87.55089569091797 21.08321380615234 83.23355865478516 16.76587677001953 C 78.91621398925781 12.44853210449219 73.88955688476562 9.059272766113281 68.293212890625 6.692230224609375 C 62.50078582763672 4.242240905761719 56.34597015380859 3 49.99972534179688 3 M 49.99972534179688 0 C 77.61381530761719 0 99.99945068359375 22.38559722900391 99.99945068359375 49.99964141845703 L 99.99945068359375 50.00022888183594 C 99.99945068359375 77.6142578125 77.61381530761719 99.99987030029297 49.99972534179688 99.99987030029297 C 22.38563537597656 99.99987030029297 0 77.6142578125 0 50.00022888183594 L 0 49.99964141845703 C 0 22.38559722900391 22.38563537597656 0 49.99972534179688 0 Z" stroke="none" fill="#fff"/>
            </g>
          </g>
        </g>
      </g>
    </g>
    <g id="Enmascarar_grupo_1098790" data-name="Enmascarar grupo 1098790" clip-path="url(#clip-path)">
      <g id="Grupo_1115150" data-name="Grupo 1115150" transform="translate(862.406 5165.427)">
        <path id="Trazado_907771" data-name="Trazado 907771" d="M105,216.164h40.26v19.668H105Zm0,0" transform="translate(-86.323 -177.302)" fill="#fea02c"/>
        <path id="Trazado_907772" data-name="Trazado 907772" d="M146.827,256.006V250H139v3.448Zm0,0" transform="translate(-114.275 -205.116)" fill="#ff5d5d"/>
        <path id="Trazado_907773" data-name="Trazado 907773" d="M27.444,295.92A82.02,82.02,0,0,1,53.1,269.648l.394-.552A82.059,82.059,0,0,0,10,256.625V300.36H24.734Zm0,0" transform="translate(-8.221 -210.566)" fill="#62cd4d"/>
        <path id="Trazado_907774" data-name="Trazado 907774" d="M92.832,300.221l2.711-4.44a82.09,82.09,0,0,1,70.071-39.325v43.764Zm0,0" transform="translate(-76.319 -210.428)" fill="#a0e557"/>
        <path id="Trazado_907775" data-name="Trazado 907775" d="M105,169.852l9.961-10.02,9.961,10.02Zm0,0" transform="translate(-86.323 -130.99)" fill="#fe8f8d"/>
        <path id="Trazado_907776" data-name="Trazado 907776" d="M191.3,169.852l-9.961-10.02H161l9.961,10.02Zm0,0" transform="translate(-132.362 -130.99)" fill="#ff5d5d"/>
        <g id="Grupo_1115150-2" data-name="Grupo 1115150" transform="translate(1.779 2.28)">
          <path id="Trazado_907777" data-name="Trazado 907777" d="M361.371,49.163c-13.278-10.677-13.278-27.987,0-38.663C374.649,21.176,374.649,38.486,361.371,49.163Zm0,0" transform="translate(-290.683 -10.5)" fill="#a0e557"/>
          <path id="Trazado_907778" data-name="Trazado 907778" d="M29.2,75.563c-10.039-8.072-10.039-21.159,0-29.231C39.24,54.4,39.24,67.491,29.2,75.563Zm0,0" transform="translate(-19.596 -39.958)" fill="#a0e557"/>
          <path id="Trazado_907779" data-name="Trazado 907779" d="M42.059,339.115A68.793,68.793,0,0,0,10,331.125v14.319a54.342,54.342,0,0,1,22.209,4.778" transform="translate(-10 -274.093)" fill="#a0e557"/>
        </g>
        <path id="Trazado_907780" data-name="Trazado 907780" d="M180.547,361.47a69.289,69.289,0,0,1,57.179-30.513v14.319a54.889,54.889,0,0,0-38.742,16.194Zm0,0" transform="translate(-148.432 -271.676)" fill="#62cd4d"/>
        <path id="Trazado_907781" data-name="Trazado 907781" d="M314.718,401.457a56.839,56.839,0,0,0-40,16.718,1.779,1.779,0,0,0,2.522,2.509,53.257,53.257,0,0,1,37.48-15.67,1.779,1.779,0,1,0,0-3.558Zm0,0" transform="translate(-225.424 -329.635)"/>
        <path id="Trazado_907782" data-name="Trazado 907782" d="M192.409,388.575a1.778,1.778,0,0,0-2.469-.478A70.207,70.207,0,0,0,170.845,407.2a1.779,1.779,0,1,0,2.954,1.984,66.649,66.649,0,0,1,18.132-18.143A1.779,1.779,0,0,0,192.409,388.575Zm0,0" transform="translate(-140.207 -318.401)"/>
        <path id="Trazado_907783" data-name="Trazado 907783" d="M388.394,320.957A69.956,69.956,0,0,0,365,324.995a1.779,1.779,0,1,0,1.187,3.353,66.412,66.412,0,0,1,22.208-3.833,1.779,1.779,0,0,0,0-3.558Zm0,0" transform="translate(-299.1 -263.454)"/>
        <path id="Trazado_907784" data-name="Trazado 907784" d="M25.486,79.367A81.074,81.074,0,0,1,72.82,49.545l.01,0a79.279,79.279,0,0,1,16.464-1.735,1.778,1.778,0,1,0,0-3.557A83.7,83.7,0,0,0,74.245,45.62V41.78C80.674,36.337,84.2,29.206,84.2,21.611,84.2,13.759,80.431,6.4,73.581.893a1.78,1.78,0,0,0-2.23,0C64.5,6.4,60.729,13.759,60.729,21.611c0,7.594,3.53,14.726,9.958,20.169v4.567a84.226,84.226,0,0,0-9.972,2.93V38.862a1.772,1.772,0,0,0-.517-1.253h0l-9.961-10.02a1.781,1.781,0,0,0-1.262-.525H28.638a1.779,1.779,0,0,0-1.261.525l-9.961,10.02h0a1.773,1.773,0,0,0-.518,1.254v6.793q-1.859-.341-3.735-.6V38.716c4.862-4.182,7.529-9.637,7.529-15.447,0-6.071-2.91-11.753-8.193-16a1.779,1.779,0,0,0-2.229,0c-5.283,4.248-8.193,9.931-8.193,16,0,5.81,2.667,11.265,7.529,15.447v5.932q-3.891-.364-7.827-.368a1.779,1.779,0,0,0,0,3.558,80.228,80.228,0,0,1,40.4,10.9,83.966,83.966,0,0,0-8.4,6.526,70.766,70.766,0,0,0-32-7.734,1.779,1.779,0,1,0,0,3.558,67.151,67.151,0,0,1,29.2,6.76,84.067,84.067,0,0,0-7.565,8.373A55.642,55.642,0,0,0,1.779,71.851a1.779,1.779,0,0,0,0,3.558A52.058,52.058,0,0,1,21.2,79.164q-1.844,2.562-3.5,5.263l-2.711,4.441a1.779,1.779,0,1,0,3.036,1.853l2.711-4.441A78.966,78.966,0,0,1,25.31,79.6,1.683,1.683,0,0,0,25.486,79.367Zm38.8-57.756c0-6.322,2.893-12.311,8.18-17,5.287,4.693,8.18,10.682,8.18,17a22.143,22.143,0,0,1-6.4,15.279V23.269a1.779,1.779,0,1,0-3.558,0V36.89A22.14,22.14,0,0,1,64.287,21.611ZM5.634,23.269A16.645,16.645,0,0,1,11.384,11a16.644,16.644,0,0,1,5.75,12.271,16.081,16.081,0,0,1-3.972,10.413V21.846a1.779,1.779,0,0,0-3.558,0V33.682A16.081,16.081,0,0,1,5.634,23.269ZM54.66,37.084H39.339l-6.424-6.463H48.236ZM28.638,31.365l5.685,5.718H22.954Zm-8.182,9.276H36.82V51.953q-1.237-.569-2.49-1.1V44.88A1.779,1.779,0,0,0,32.551,43.1H24.725a1.78,1.78,0,0,0-1.779,1.779V47q-1.24-.323-2.49-.61Zm10.317,8.81q-2.116-.78-4.269-1.445V46.659h4.269Zm9.605,4.243V40.641h16.78V50.658a83.484,83.484,0,0,0-8.91,4.324q-1.384.776-2.736,1.607Q42.99,55.048,40.378,53.693Zm0,0" transform="translate(0 0)"/>
        <path id="Trazado_907785" data-name="Trazado 907785" d="M399.177,84.058a1.781,1.781,0,1,0-1.257-.522A1.791,1.791,0,0,0,399.177,84.058Zm0,0" transform="translate(-326.711 -65.769)"/>
        <path id="Trazado_907786" data-name="Trazado 907786" d="M318.189,363.358a1.776,1.776,0,1,0,1.258-.522A1.794,1.794,0,0,0,318.189,363.358Zm0,0" transform="translate(-261.162 -297.884)"/>
      </g>
    </g>
    <path id="Trazado_909642" data-name="Trazado 909642" d="M50,0a50,50,0,0,1,50,50h0A50,50,0,0,1,0,50H0A50,50,0,0,1,50,0Z" transform="translate(858.051 5157)" fill="none"/>
  </g>
</svg>
