<svg xmlns="http://www.w3.org/2000/svg" xmlns:xlink="http://www.w3.org/1999/xlink" width="518.559" height="434.001" viewBox="0 0 518.559 434.001">
  <defs>
    <clipPath id="clip-path">
      <circle id="Elipse_11818" data-name="Elipse 11818" cx="64.5" cy="64.5" r="64.5" transform="translate(0.322 0.321)" fill="#d7e9ff" stroke="#9cc8ff" stroke-width="5"/>
    </clipPath>
  </defs>
  <g id="Grupo_1118592" data-name="Grupo 1118592" transform="translate(-539.984 -2238)">
    <g id="Grupo_1118554" data-name="Grupo 1118554" transform="translate(-1404.809 2259.513)">
      <rect id="Rectángulo_405110" data-name="Rectángulo 405110" width="52.943" height="231.629" rx="13.971" transform="translate(1976.86 412.453) rotate(-90)" fill="#f3f0ea"/>
      <rect id="Rectángulo_405114" data-name="Rectángulo 405114" width="52.943" height="232.084" rx="13.971" transform="translate(1976.86 31.43) rotate(-90)" fill="#d7e9ff"/>
      <rect id="Rectángulo_405112" data-name="Rectángulo 405112" width="52.943" height="225.673" rx="13.971" transform="translate(2208.86 412.488) rotate(-90)" fill="#ffeb99"/>
      <rect id="Rectángulo_405113" data-name="Rectángulo 405113" width="52.943" height="225.589" rx="13.971" transform="translate(2208.86 31.43) rotate(-90)" fill="#d6edba"/>
      <g id="Grupo_1118552" data-name="Grupo 1118552" transform="translate(42.934 51.68)">
        <path id="Rectángulo_404932" data-name="Rectángulo 404932" d="M1921.929-37.31h287v229h-307v-209A20,20,0,0,1,1921.929-37.31Z" fill="#a8c6fc"/>
        <path id="Rectángulo_404934" data-name="Rectángulo 404934" d="M1901.929,191.69h307V371.881h-287c-11.046,0-20-7.016-20-15.669V191.69Z" transform="translate(-0.069 -51.681)" fill="#ccbfa6"/>
        <path id="Rectángulo_404933" data-name="Rectángulo 404933" d="M2208.929-37.31h237.75c9.28,0,16.8,8.954,16.8,20v209H2208.929v-229Z" transform="translate(-43.132)" fill="#aad15e"/>
        <path id="Rectángulo_404935" data-name="Rectángulo 404935" d="M2208.929,191.69h254.552V356.213c0,8.653-7.522,15.669-16.8,15.669h-237.75V191.69Z" transform="translate(-43.063 -51.682)" fill="#f0ca30"/>
      </g>
      <path id="Trazado_912758" data-name="Trazado 912758" d="M2208.914,191.69H2041.108a167.207,167.207,0,0,0,44.277,113.569L2208.929,191.7Z" fill="#706c65"/>
      <path id="Trazado_912759" data-name="Trazado 912759" d="M2208.929,191.7,2085.385,305.259a167.367,167.367,0,0,0,123.544,54.251V191.7Z" fill="#9d978d"/>
      <path id="Trazado_912760" data-name="Trazado 912760" d="M2208.929,191.7h0Z" fill="#aad15e"/>
      <path id="Trazado_912761" data-name="Trazado 912761" d="M2208.914,191.69l.015.014h0v-.014Z" fill="#aad15e"/>
      <path id="Trazado_912762" data-name="Trazado 912762" d="M2208.929,191.69V23.869A167.344,167.344,0,0,0,2086.475,76.95l122.439,114.74Z" fill="#4d637e"/>
      <path id="Trazado_912763" data-name="Trazado 912763" d="M2086.475,76.95a167.223,167.223,0,0,0-45.367,114.74h167.806Z" fill="#6c8bb1"/>
      <path id="Trazado_912764" data-name="Trazado 912764" d="M2208.929,191.7l.015-.014h-.015Z" fill="#aad15e"/>
      <path id="Trazado_912765" data-name="Trazado 912765" d="M2208.944,191.69l-.015.014h0l122.44,114.74A167.222,167.222,0,0,0,2376.75,191.69Z" fill="#b18d00"/>
      <path id="Trazado_912766" data-name="Trazado 912766" d="M2208.929,359.51a167.34,167.34,0,0,0,122.44-53.066L2208.929,191.7Z" fill="#7e6500"/>
      <path id="Trazado_912767" data-name="Trazado 912767" d="M2208.944,191.69,2332.487,78.135a167.371,167.371,0,0,0-123.558-54.266V191.69Z" fill="#4c6929"/>
      <path id="Trazado_912768" data-name="Trazado 912768" d="M2376.75,191.69a167.209,167.209,0,0,0-44.263-113.555L2208.944,191.69Z" fill="#6b9339"/>
      <g id="Grupo_1118553" data-name="Grupo 1118553">
        <path id="Trazado_912769" data-name="Trazado 912769" d="M2055.429,191.69a153.5,153.5,0,0,0,153.5,153.5V191.69Z" fill="#f3f0ea"/>
        <path id="Trazado_912770" data-name="Trazado 912770" d="M2208.929,38.19a153.5,153.5,0,0,0-153.5,153.5h153.5Z" fill="#d7e9ff"/>
        <path id="Trazado_912771" data-name="Trazado 912771" d="M2208.929,345.19a153.5,153.5,0,0,0,153.5-153.5h-153.5Z" fill="#ffeb99"/>
        <path id="Trazado_912772" data-name="Trazado 912772" d="M2208.929,38.19v153.5h153.5A153.5,153.5,0,0,0,2208.929,38.19Z" fill="#d6edba"/>
      </g>
    </g>
    <path id="Trazado_916657" data-name="Trazado 916657" d="M21.448,9.367v2.268h3.744v2.971H21.448V19h-3.8V6.4h7.9V9.367Zm15.609,4.975a4.687,4.687,0,0,1-1.375,3.577,5.375,5.375,0,0,1-3.845,1.3,5.4,5.4,0,0,1-3.819-1.27,4.546,4.546,0,0,1-1.367-3.5,4.692,4.692,0,0,1,.642-2.487,4.172,4.172,0,0,1,1.828-1.617,6.311,6.311,0,0,1,2.733-.562,6.113,6.113,0,0,1,2.773.589A4.286,4.286,0,0,1,36.429,12,4.452,4.452,0,0,1,37.058,14.342Zm-3.8.018q0-1.837-1.406-1.837t-1.406,1.925q0,2.03,1.424,2.03Q33.261,16.478,33.261,14.359Zm11.962-1.151a3.6,3.6,0,0,0-1.169-.255q-1.854,0-1.854,2.145V19H38.455V10H42.2v1.582h.035a2.81,2.81,0,0,1,.976-1.3,2.506,2.506,0,0,1,1.477-.444,1.269,1.269,0,0,1,.536.105Zm7.418,5.669a3.648,3.648,0,0,1-.835.233,7.634,7.634,0,0,1-1.4.11,3.357,3.357,0,0,1-2.448-.861,3.269,3.269,0,0,1-.883-2.452V12.593H45.662V10h1.415V8.233l3.691-1.02V10h1.872v2.593H50.769v2.7q0,1.187.94,1.187a2.551,2.551,0,0,0,.932-.193ZM58.8,19V17.629h-.035a2.944,2.944,0,0,1-2.742,1.591,2.625,2.625,0,0,1-2-.756,2.808,2.808,0,0,1-.721-2.021q0-2.654,3.261-3.076l2.232-.29a.851.851,0,0,0-.4-.721,1.8,1.8,0,0,0-1.063-.281,7,7,0,0,0-3.19.861V10.5a8.535,8.535,0,0,1,1.828-.519,10.639,10.639,0,0,1,1.881-.2,4.722,4.722,0,0,1,3.327.98,4.368,4.368,0,0,1,1.033,3.274V19Zm-2.215-3.059a.83.83,0,0,0,.233.606.888.888,0,0,0,.664.237,1.18,1.18,0,0,0,.954-.439,1.7,1.7,0,0,0,.365-1.125v-.343l-1.266.176Q56.587,15.212,56.587,15.941ZM63.908,19V5.676h3.744V19Zm8.771-3.437a1.265,1.265,0,0,0,.668.91,3.012,3.012,0,0,0,1.512.33,6.226,6.226,0,0,0,2.479-.5v2.373a8.908,8.908,0,0,1-3.3.545,5.214,5.214,0,0,1-3.665-1.2,4.277,4.277,0,0,1-1.31-3.313,5.467,5.467,0,0,1,.576-2.558,4.142,4.142,0,0,1,1.705-1.736,5.038,5.038,0,0,1,2.492-.628,4.9,4.9,0,0,1,2.391.545,3.63,3.63,0,0,1,1.507,1.529,4.906,4.906,0,0,1,.514,2.3v1.406Zm2.25-1.96q0-1.556-1.116-1.556a.944.944,0,0,0-.782.426,2.127,2.127,0,0,0-.369,1.129Zm8.842,2.8H87.48V19H78.858V17.269L82.9,12.593H79.236V10H87.4v2.127ZM93.686,19V17.629H93.65a2.944,2.944,0,0,1-2.742,1.591,2.625,2.625,0,0,1-2-.756,2.808,2.808,0,0,1-.721-2.021q0-2.654,3.261-3.076l2.232-.29a.851.851,0,0,0-.4-.721,1.8,1.8,0,0,0-1.063-.281,7,7,0,0,0-3.19.861V10.5a8.535,8.535,0,0,1,1.828-.519,10.639,10.639,0,0,1,1.881-.2,4.722,4.722,0,0,1,3.327.98A4.368,4.368,0,0,1,97.1,14.034V19Zm-2.215-3.059a.83.83,0,0,0,.233.606.888.888,0,0,0,.664.237,1.18,1.18,0,0,0,.954-.439,1.7,1.7,0,0,0,.365-1.125v-.343l-1.266.176Q91.471,15.212,91.471,15.941Zm14.634.07a2.749,2.749,0,0,1-1.165,2.369,5.474,5.474,0,0,1-3.248.839,11.291,11.291,0,0,1-1.5-.123,9.257,9.257,0,0,1-1.455-.3V16.17a7.162,7.162,0,0,0,2.777.738q1.1,0,1.1-.571a.451.451,0,0,0-.255-.391,9.009,9.009,0,0,0-1.336-.514,3.773,3.773,0,0,1-1.74-1,2.382,2.382,0,0,1-.545-1.626,2.594,2.594,0,0,1,1.112-2.21,5.216,5.216,0,0,1,3.125-.813,9.931,9.931,0,0,1,2.5.343v2.522a7.549,7.549,0,0,0-1.213-.4,4.9,4.9,0,0,0-1.107-.158,1.205,1.205,0,0,0-.589.123.379.379,0,0,0-.22.343.478.478,0,0,0,.237.413,4.2,4.2,0,0,0,.949.378,4.4,4.4,0,0,1,1.978,1.037A2.272,2.272,0,0,1,106.1,16.012Z" transform="translate(627.051 2634.203)" fill="#12263f"/>
    <path id="Trazado_916654" data-name="Trazado 916654" d="M22.661,12.54a6.954,6.954,0,0,1-.8,3.388,5.542,5.542,0,0,1-2.3,2.272,7.189,7.189,0,0,1-3.445.8H10.778V6.4H16Q22.661,6.4,22.661,12.54Zm-4.034.035a3.627,3.627,0,0,0-.374-1.661,2.7,2.7,0,0,0-1.068-1.143,3.191,3.191,0,0,0-1.635-.4h-.976v6.662h1.063a2.736,2.736,0,0,0,2.175-.936A3.707,3.707,0,0,0,18.627,12.575Zm8.692,2.988a1.265,1.265,0,0,0,.668.91,3.012,3.012,0,0,0,1.512.33,6.226,6.226,0,0,0,2.479-.5v2.373a8.908,8.908,0,0,1-3.3.545,5.214,5.214,0,0,1-3.665-1.2A4.277,4.277,0,0,1,23.7,14.7a5.467,5.467,0,0,1,.576-2.558,4.142,4.142,0,0,1,1.705-1.736,5.038,5.038,0,0,1,2.492-.628,4.9,4.9,0,0,1,2.391.545,3.63,3.63,0,0,1,1.507,1.529,4.906,4.906,0,0,1,.514,2.3v1.406Zm2.25-1.96q0-1.556-1.116-1.556a.944.944,0,0,0-.782.426A2.127,2.127,0,0,0,27.3,13.6Zm14.757.624a6.586,6.586,0,0,1-.488,2.615A3.975,3.975,0,0,1,42.454,18.6a3.486,3.486,0,0,1-2.03.62,3.2,3.2,0,0,1-1.49-.321,2.683,2.683,0,0,1-.98-.831h-.035V19H34.175V5.676h3.744v5.546h.035a3.083,3.083,0,0,1,1.191-1.055A3.567,3.567,0,0,1,40.8,9.78a3.157,3.157,0,0,1,2.615,1.134A5.2,5.2,0,0,1,44.326,14.228Zm-3.8.114a2.234,2.234,0,0,0-.347-1.362A1.25,1.25,0,0,0,38.231,13a1.933,1.933,0,0,0-.382,1.244v.545a2,2,0,0,0,.343,1.23,1.094,1.094,0,0,0,.923.457,1.182,1.182,0,0,0,1.046-.558A2.849,2.849,0,0,0,40.529,14.342ZM49.7,7.574a1.608,1.608,0,0,1-.576,1.283A2.252,2.252,0,0,1,47.6,9.35a2.2,2.2,0,0,1-1.5-.51,1.612,1.612,0,0,1-.584-1.266,1.561,1.561,0,0,1,.567-1.252,2.639,2.639,0,0,1,3.032,0A1.551,1.551,0,0,1,49.7,7.574ZM45.732,19V10h3.744v9Zm5.546,0V5.676h3.744V19Zm9.51-11.426a1.608,1.608,0,0,1-.576,1.283A2.252,2.252,0,0,1,58.7,9.35a2.2,2.2,0,0,1-1.5-.51,1.612,1.612,0,0,1-.584-1.266,1.561,1.561,0,0,1,.567-1.252,2.639,2.639,0,0,1,3.032,0A1.551,1.551,0,0,1,60.788,7.574ZM56.824,19V10h3.744v9Zm11.558,0V17.954h-.035a3.089,3.089,0,0,1-1.169.927,3.331,3.331,0,0,1-1.424.338,3.663,3.663,0,0,1-2.03-.567,3.443,3.443,0,0,1-1.314-1.586,6.106,6.106,0,0,1-.435-2.408,5.925,5.925,0,0,1,.519-2.54A4.059,4.059,0,0,1,63.952,10.4a3.769,3.769,0,0,1,2.109-.615,3.193,3.193,0,0,1,1.024.158,2.77,2.77,0,0,1,.817.426,1.273,1.273,0,0,1,.444.532h.035V5.676h3.744V19Zm.079-4.772a1.974,1.974,0,0,0-.356-1.257,1.2,1.2,0,0,0-1.951.11,2.593,2.593,0,0,0-.382,1.49q0,1.907,1.318,1.907a1.173,1.173,0,0,0,1-.514,2.531,2.531,0,0,0,.374-1.5ZM78.92,19V17.629h-.035a2.944,2.944,0,0,1-2.742,1.591,2.625,2.625,0,0,1-2-.756,2.808,2.808,0,0,1-.721-2.021q0-2.654,3.261-3.076l2.232-.29a.851.851,0,0,0-.4-.721,1.8,1.8,0,0,0-1.063-.281,7,7,0,0,0-3.19.861V10.5A8.535,8.535,0,0,1,76.1,9.982a10.639,10.639,0,0,1,1.881-.2,4.722,4.722,0,0,1,3.327.98,4.368,4.368,0,0,1,1.033,3.274V19Zm-2.215-3.059a.83.83,0,0,0,.233.606.888.888,0,0,0,.664.237,1.18,1.18,0,0,0,.954-.439,1.7,1.7,0,0,0,.365-1.125v-.343l-1.266.176Q76.705,15.212,76.705,15.941ZM90.038,19V17.954H90a3.089,3.089,0,0,1-1.169.927,3.331,3.331,0,0,1-1.424.338,3.663,3.663,0,0,1-2.03-.567,3.443,3.443,0,0,1-1.314-1.586,6.106,6.106,0,0,1-.435-2.408,5.925,5.925,0,0,1,.519-2.54A4.059,4.059,0,0,1,85.608,10.4a3.769,3.769,0,0,1,2.109-.615,3.193,3.193,0,0,1,1.024.158,2.77,2.77,0,0,1,.817.426A1.273,1.273,0,0,1,90,10.9h.035V5.676h3.744V19Zm.079-4.772a1.974,1.974,0,0,0-.356-1.257,1.2,1.2,0,0,0-1.951.11,2.593,2.593,0,0,0-.382,1.49q0,1.907,1.318,1.907a1.173,1.173,0,0,0,1-.514,2.531,2.531,0,0,0,.374-1.5Zm8.692,1.336a1.265,1.265,0,0,0,.668.91,3.012,3.012,0,0,0,1.512.33,6.226,6.226,0,0,0,2.479-.5v2.373a8.908,8.908,0,0,1-3.3.545,5.214,5.214,0,0,1-3.665-1.2,4.277,4.277,0,0,1-1.31-3.313,5.467,5.467,0,0,1,.576-2.558,4.142,4.142,0,0,1,1.705-1.736,5.038,5.038,0,0,1,2.492-.628,4.9,4.9,0,0,1,2.391.545,3.63,3.63,0,0,1,1.507,1.529,4.906,4.906,0,0,1,.514,2.3v1.406Zm2.25-1.96q0-1.556-1.116-1.556a.944.944,0,0,0-.782.426,2.127,2.127,0,0,0-.369,1.129Zm11.918,2.408a2.749,2.749,0,0,1-1.165,2.369,5.474,5.474,0,0,1-3.248.839,11.291,11.291,0,0,1-1.5-.123,9.257,9.257,0,0,1-1.455-.3V16.17a7.162,7.162,0,0,0,2.777.738q1.1,0,1.1-.571a.451.451,0,0,0-.255-.391,9.009,9.009,0,0,0-1.336-.514,3.773,3.773,0,0,1-1.74-1,2.382,2.382,0,0,1-.545-1.626,2.594,2.594,0,0,1,1.112-2.21,5.216,5.216,0,0,1,3.125-.813,9.931,9.931,0,0,1,2.5.343v2.522a7.549,7.549,0,0,0-1.213-.4,4.9,4.9,0,0,0-1.107-.158,1.205,1.205,0,0,0-.589.123.379.379,0,0,0-.22.343.478.478,0,0,0,.237.413,4.2,4.2,0,0,0,.949.378,4.4,4.4,0,0,1,1.978,1.037A2.272,2.272,0,0,1,112.978,16.012Z" transform="translate(627.051 2244.203)" fill="#12263f"/>
    <path id="Trazado_916656" data-name="Trazado 916656" d="M24.647,12.663a6.977,6.977,0,0,1-.817,3.4,5.828,5.828,0,0,1-2.285,2.329,6.9,6.9,0,0,1-6.517.026,5.691,5.691,0,0,1-2.263-2.259,6.659,6.659,0,0,1-.809-3.292A7.263,7.263,0,0,1,12.773,9.4a5.807,5.807,0,0,1,2.294-2.377,6.673,6.673,0,0,1,3.357-.839,6.486,6.486,0,0,1,3.239.8,5.483,5.483,0,0,1,2.206,2.294A7.192,7.192,0,0,1,24.647,12.663Zm-4.025.105a4.375,4.375,0,0,0-.6-2.452,1.867,1.867,0,0,0-1.635-.9,2.067,2.067,0,0,0-1.767.861,4.054,4.054,0,0,0-.633,2.435,4.007,4.007,0,0,0,.628,2.4,2,2,0,0,0,1.709.861,1.957,1.957,0,0,0,1.187-.387,2.477,2.477,0,0,0,.817-1.107A4.582,4.582,0,0,0,20.622,12.769ZM36.24,14.228a6.4,6.4,0,0,1-.5,2.61A4.046,4.046,0,0,1,34.324,18.6a3.564,3.564,0,0,1-2.057.624,2.755,2.755,0,0,1-2.4-1.151h-.035V23.14H26.088V10h3.744v1.222h.035a3.171,3.171,0,0,1,1.16-1.059,3.364,3.364,0,0,1,1.617-.382,3.215,3.215,0,0,1,2.667,1.16A5.147,5.147,0,0,1,36.24,14.228Zm-3.8.114a2.346,2.346,0,0,0-.33-1.336,1.237,1.237,0,0,0-1.982.026,2.341,2.341,0,0,0-.369,1.4v.176a2.562,2.562,0,0,0,.316,1.362,1.044,1.044,0,0,0,.949.51,1.182,1.182,0,0,0,1.046-.558A2.849,2.849,0,0,0,32.443,14.342Zm15.214,0a4.687,4.687,0,0,1-1.375,3.577,5.375,5.375,0,0,1-3.845,1.3,5.4,5.4,0,0,1-3.819-1.27,4.546,4.546,0,0,1-1.367-3.5,4.692,4.692,0,0,1,.642-2.487,4.172,4.172,0,0,1,1.828-1.617,6.311,6.311,0,0,1,2.733-.562,6.113,6.113,0,0,1,2.773.589A4.286,4.286,0,0,1,47.028,12,4.452,4.452,0,0,1,47.657,14.342Zm-3.8.018q0-1.837-1.406-1.837t-1.406,1.925q0,2.03,1.424,2.03Q43.86,16.478,43.86,14.359Zm11.962-1.151a3.6,3.6,0,0,0-1.169-.255q-1.854,0-1.854,2.145V19H49.054V10H52.8v1.582h.035a2.81,2.81,0,0,1,.976-1.3,2.506,2.506,0,0,1,1.477-.444,1.269,1.269,0,0,1,.536.105Zm7.418,5.669a3.648,3.648,0,0,1-.835.233,7.634,7.634,0,0,1-1.4.11,3.357,3.357,0,0,1-2.448-.861,3.269,3.269,0,0,1-.883-2.452V12.593H56.261V10h1.415V8.233l3.691-1.02V10H63.24v2.593H61.368v2.7q0,1.187.94,1.187a2.551,2.551,0,0,0,.932-.193Zm6.9.123V17.611H70.1a4.926,4.926,0,0,1-.839.94,3.23,3.23,0,0,1-.844.483,2.983,2.983,0,0,1-1.094.185,2.722,2.722,0,0,1-2.25-.958,4.429,4.429,0,0,1-.773-2.83V10h3.744v5.15q0,1.327.993,1.327a.972.972,0,0,0,.822-.36,1.642,1.642,0,0,0,.277-1.02V10h3.744v9Zm11.373,0V14.087a2.184,2.184,0,0,0-.25-1.2.915.915,0,0,0-.813-.365.88.88,0,0,0-.756.378,1.613,1.613,0,0,0-.272.967V19H75.676V10H79.42v1.406h.035a3.177,3.177,0,0,1,1.2-1.2A3.29,3.29,0,0,1,82.3,9.78q2.953,0,2.953,3.727V19Zm9.4-11.426a1.608,1.608,0,0,1-.576,1.283,2.252,2.252,0,0,1-1.516.492,2.2,2.2,0,0,1-1.5-.51,1.612,1.612,0,0,1-.584-1.266A1.561,1.561,0,0,1,87.3,6.322a2.639,2.639,0,0,1,3.032,0A1.551,1.551,0,0,1,90.908,7.574ZM86.944,19V10h3.744v9ZM98.5,19V17.954h-.035a3.089,3.089,0,0,1-1.169.927,3.331,3.331,0,0,1-1.424.338,3.663,3.663,0,0,1-2.03-.567,3.443,3.443,0,0,1-1.314-1.586,6.106,6.106,0,0,1-.435-2.408,5.925,5.925,0,0,1,.519-2.54A4.059,4.059,0,0,1,94.072,10.4a3.769,3.769,0,0,1,2.109-.615,3.193,3.193,0,0,1,1.024.158,2.77,2.77,0,0,1,.817.426,1.273,1.273,0,0,1,.444.532H98.5V5.676h3.744V19Zm.079-4.772a1.974,1.974,0,0,0-.356-1.257,1.2,1.2,0,0,0-1.951.11,2.593,2.593,0,0,0-.382,1.49q0,1.907,1.318,1.907a1.173,1.173,0,0,0,1-.514,2.531,2.531,0,0,0,.374-1.5ZM109.04,19V17.629H109a2.944,2.944,0,0,1-2.742,1.591,2.625,2.625,0,0,1-2-.756,2.808,2.808,0,0,1-.721-2.021q0-2.654,3.261-3.076l2.232-.29a.851.851,0,0,0-.4-.721,1.8,1.8,0,0,0-1.063-.281,7,7,0,0,0-3.19.861V10.5a8.535,8.535,0,0,1,1.828-.519,10.639,10.639,0,0,1,1.881-.2,4.722,4.722,0,0,1,3.327.98,4.368,4.368,0,0,1,1.033,3.274V19Zm-2.215-3.059a.83.83,0,0,0,.233.606.888.888,0,0,0,.664.237,1.18,1.18,0,0,0,.954-.439,1.7,1.7,0,0,0,.365-1.125v-.343l-1.266.176Q106.825,15.212,106.825,15.941ZM120.158,19V17.954h-.035a3.089,3.089,0,0,1-1.169.927,3.331,3.331,0,0,1-1.424.338,3.663,3.663,0,0,1-2.03-.567,3.443,3.443,0,0,1-1.314-1.586,6.106,6.106,0,0,1-.435-2.408,5.925,5.925,0,0,1,.519-2.54,4.059,4.059,0,0,1,1.459-1.723,3.769,3.769,0,0,1,2.109-.615,3.193,3.193,0,0,1,1.024.158,2.77,2.77,0,0,1,.817.426,1.273,1.273,0,0,1,.444.532h.035V5.676H123.9V19Zm.079-4.772a1.974,1.974,0,0,0-.356-1.257,1.2,1.2,0,0,0-1.951.11,2.593,2.593,0,0,0-.382,1.49q0,1.907,1.318,1.907a1.173,1.173,0,0,0,1-.514,2.531,2.531,0,0,0,.374-1.5Zm8.692,1.336a1.265,1.265,0,0,0,.668.91,3.012,3.012,0,0,0,1.512.33,6.226,6.226,0,0,0,2.479-.5v2.373a8.908,8.908,0,0,1-3.3.545,5.214,5.214,0,0,1-3.665-1.2,4.277,4.277,0,0,1-1.31-3.313,5.467,5.467,0,0,1,.576-2.558,4.142,4.142,0,0,1,1.705-1.736,5.038,5.038,0,0,1,2.492-.628,4.9,4.9,0,0,1,2.391.545,3.63,3.63,0,0,1,1.507,1.529,4.906,4.906,0,0,1,.514,2.3v1.406Zm2.25-1.96q0-1.556-1.116-1.556a.944.944,0,0,0-.782.426,2.127,2.127,0,0,0-.369,1.129ZM143.1,16.012a2.749,2.749,0,0,1-1.165,2.369,5.474,5.474,0,0,1-3.248.839,11.291,11.291,0,0,1-1.5-.123,9.257,9.257,0,0,1-1.455-.3V16.17a7.162,7.162,0,0,0,2.777.738q1.1,0,1.1-.571a.451.451,0,0,0-.255-.391,9.009,9.009,0,0,0-1.336-.514,3.773,3.773,0,0,1-1.74-1,2.382,2.382,0,0,1-.545-1.626,2.594,2.594,0,0,1,1.112-2.21,5.216,5.216,0,0,1,3.125-.813,9.931,9.931,0,0,1,2.5.343v2.522a7.549,7.549,0,0,0-1.213-.4,4.9,4.9,0,0,0-1.107-.158,1.205,1.205,0,0,0-.589.123.379.379,0,0,0-.22.343.478.478,0,0,0,.237.413,4.2,4.2,0,0,0,.949.378,4.4,4.4,0,0,1,1.978,1.037A2.272,2.272,0,0,1,143.1,16.012Z" transform="translate(838.871 2634.203)" fill="#12263f"/>
    <path id="Trazado_916655" data-name="Trazado 916655" d="M25.641,19l-.554-2.32H21.325l-.6,2.32h-4.1L20.965,6.4h4.711L29.763,19ZM23.25,9.139h-.088a6.123,6.123,0,0,1-.123.694q-.105.483-1.063,4.148h2.408L23.5,10.554A10.84,10.84,0,0,1,23.25,9.139ZM42.568,19V13.814a1.654,1.654,0,0,0-.233-.971.876.876,0,0,0-.76-.321.949.949,0,0,0-.809.391A1.79,1.79,0,0,0,40.477,14v5H36.732V13.9q0-1.38-.94-1.38a1,1,0,0,0-.861.4,1.933,1.933,0,0,0-.29,1.147V19H30.9V10h3.744v1.424h.035a2.9,2.9,0,0,1,.672-.769,3.946,3.946,0,0,1,1.042-.633,3.235,3.235,0,0,1,1.257-.242,3.181,3.181,0,0,1,1.613.378,2.931,2.931,0,0,1,1.094,1.2,3.207,3.207,0,0,1,1.266-1.165,3.772,3.772,0,0,1,1.758-.409,2.645,2.645,0,0,1,2.171.923,4.109,4.109,0,0,1,.756,2.663V19Zm8.657-3.437a1.265,1.265,0,0,0,.668.91,3.012,3.012,0,0,0,1.512.33,6.226,6.226,0,0,0,2.479-.5v2.373a8.908,8.908,0,0,1-3.3.545,5.214,5.214,0,0,1-3.665-1.2A4.277,4.277,0,0,1,47.6,14.7a5.467,5.467,0,0,1,.576-2.558,4.142,4.142,0,0,1,1.705-1.736,5.038,5.038,0,0,1,2.492-.628,4.9,4.9,0,0,1,2.391.545,3.63,3.63,0,0,1,1.507,1.529,4.906,4.906,0,0,1,.514,2.3v1.406Zm2.25-1.96q0-1.556-1.116-1.556a.944.944,0,0,0-.782.426,2.127,2.127,0,0,0-.369,1.129ZM63.917,19V14.087a2.184,2.184,0,0,0-.25-1.2.915.915,0,0,0-.813-.365.88.88,0,0,0-.756.378,1.613,1.613,0,0,0-.272.967V19H58.081V10h3.744v1.406h.035a3.177,3.177,0,0,1,1.2-1.2,3.29,3.29,0,0,1,1.644-.426q2.953,0,2.953,3.727V19Zm10.424,0V17.629h-.035a2.944,2.944,0,0,1-2.742,1.591,2.625,2.625,0,0,1-2-.756,2.808,2.808,0,0,1-.721-2.021q0-2.654,3.261-3.076l2.232-.29a.851.851,0,0,0-.4-.721,1.8,1.8,0,0,0-1.063-.281,7,7,0,0,0-3.19.861V10.5a8.535,8.535,0,0,1,1.828-.519,10.639,10.639,0,0,1,1.881-.2,4.722,4.722,0,0,1,3.327.98,4.368,4.368,0,0,1,1.033,3.274V19Zm-2.215-3.059a.83.83,0,0,0,.233.606.888.888,0,0,0,.664.237,1.18,1.18,0,0,0,.954-.439,1.7,1.7,0,0,0,.365-1.125v-.343l-1.266.176Q72.126,15.212,72.126,15.941Zm11.558.466h3.709V19H78.771V17.269l4.043-4.676H79.148V10h8.165v2.127ZM93.6,19V17.629h-.035A2.944,2.944,0,0,1,90.82,19.22a2.625,2.625,0,0,1-2-.756,2.808,2.808,0,0,1-.721-2.021q0-2.654,3.261-3.076l2.232-.29a.851.851,0,0,0-.4-.721,1.8,1.8,0,0,0-1.063-.281,7,7,0,0,0-3.19.861V10.5a8.535,8.535,0,0,1,1.828-.519,10.639,10.639,0,0,1,1.881-.2,4.722,4.722,0,0,1,3.327.98,4.368,4.368,0,0,1,1.033,3.274V19Zm-2.215-3.059a.83.83,0,0,0,.233.606.888.888,0,0,0,.664.237,1.18,1.18,0,0,0,.954-.439,1.7,1.7,0,0,0,.365-1.125v-.343l-1.266.176Q91.383,15.212,91.383,15.941Zm14.634.07a2.749,2.749,0,0,1-1.165,2.369,5.474,5.474,0,0,1-3.248.839,11.291,11.291,0,0,1-1.5-.123,9.257,9.257,0,0,1-1.455-.3V16.17a7.162,7.162,0,0,0,2.777.738q1.1,0,1.1-.571a.451.451,0,0,0-.255-.391,9.009,9.009,0,0,0-1.336-.514,3.773,3.773,0,0,1-1.74-1,2.382,2.382,0,0,1-.545-1.626,2.594,2.594,0,0,1,1.112-2.21,5.216,5.216,0,0,1,3.125-.813,9.931,9.931,0,0,1,2.5.343v2.522a7.549,7.549,0,0,0-1.213-.4,4.9,4.9,0,0,0-1.107-.158,1.205,1.205,0,0,0-.589.123.379.379,0,0,0-.22.343.478.478,0,0,0,.237.413,4.2,4.2,0,0,0,.949.378,4.4,4.4,0,0,1,1.978,1.037A2.272,2.272,0,0,1,106.017,16.012Z" transform="translate(855.051 2244.203)" fill="#12263f"/>
    <g id="Grupo_1118558" data-name="Grupo 1118558" transform="translate(0 -15.797)">
      <g id="Elipse_11817" data-name="Elipse 11817" transform="translate(631.051 2315)" fill="#d7e9ff" stroke="#5c88be" stroke-width="5">
        <circle cx="70.5" cy="70.5" r="70.5" stroke="none"/>
        <circle cx="70.5" cy="70.5" r="68" fill="none"/>
      </g>
      <g id="Enmascarar_grupo_1098797" data-name="Enmascarar grupo 1098797" transform="translate(637.729 2321.678)" clip-path="url(#clip-path)">
        <g id="Grupo_1118555" data-name="Grupo 1118555" transform="translate(10.66 18.574)">
          <g id="Grupo_1118556" data-name="Grupo 1118556" transform="translate(1.54 7.746)">
            <path id="Trazado_912773" data-name="Trazado 912773" d="M174.282,382.086l-11.709-6.937-25.724-.061-4.459,1.351L128.7,391.328l10.1,11.7H160.61Z" transform="translate(-103.826 -301.85)" fill="#faf8f8"/>
            <path id="Trazado_912774" data-name="Trazado 912774" d="M35.6,397.24l2.45,8.383,24.514,2.308h3.655l-.788-1.5c-4.389-8.371-5.624-19.861-5.952-24.412a5.339,5.339,0,0,0-.091-.672l-13.285,4.025A15.111,15.111,0,0,0,35.6,397.24Z" transform="translate(-30.83 -306.755)" fill="#f0e9e6"/>
            <path id="Trazado_912775" data-name="Trazado 912775" d="M15.65,402.492a2.159,2.159,0,0,1-2.126-2.538l1.547-8.685a18.253,18.253,0,0,1,12.792-14.431l7.721-2.321a2.589,2.589,0,0,1,3.33,2.291c.4,5.517,1.749,16.978,6.315,25.685Z" transform="translate(-13.49 -301.316)" fill="#bae6ef"/>
            <path id="Trazado_912776" data-name="Trazado 912776" d="M147.389,188.085l1.394.384a6.272,6.272,0,0,1,4.369,7.719,8.651,8.651,0,0,1-10.627,6.063L94.44,189.012a8.651,8.651,0,0,1-6.026-10.647,6.272,6.272,0,0,1,7.7-4.4l1.394.384Z" transform="translate(-71.992 -143.977)" fill="#f2bb88"/>
            <path id="Trazado_912777" data-name="Trazado 912777" d="M192.793,331.729l-1.92-2.031-.478-12.576h0l-.192,0-22.741.437s.461,6.284.461,6.284l-1.652,4.021-.248,2.144a8.514,8.514,0,0,0,1.784,6.332c1.814,2.251,5.14,4.608,11.118,4.608s9.3-2.356,11.117-4.607a8.3,8.3,0,0,0,1.558-3.1.019.019,0,0,1,0,0Z" transform="translate(-133.043 -256.399)" fill="#f2d1a5"/>
            <path id="Trazado_912778" data-name="Trazado 912778" d="M192.908,329.7l-1.395-12.576h0l-.19,0-22.741.436-.751,6.49-.44,3.815a20.217,20.217,0,0,0,6.855,3.463,19.293,19.293,0,0,0,5.106.669,26.345,26.345,0,0,0,8.427-1.512,1.065,1.065,0,0,1,1.407.885l0,.018a1.062,1.062,0,0,0,.7.885l2.823,1,.006-.026v0l1.192-1.511Z" transform="translate(-134.161 -256.401)" fill="#f2bb88"/>
            <path id="Trazado_912779" data-name="Trazado 912779" d="M171.951,99.469c-2.918,10.6-4.081,14.022-10.041,18.825-8.221,6.625-17.173,10.2-24.243,8.251s-12.932-9.6-16.6-19.5c-2.224-6-2.064-9.451-.25-16.6.358-1.41,1.935-3.305,2.416-5.05l3.021-24.669,52.727,22.407Z" transform="translate(-96.554 -55.362)" fill="#f2d1a5"/>
            <g id="Grupo_1118555-2" data-name="Grupo 1118555" transform="translate(24.261 5.957)">
              <path id="Trazado_912780" data-name="Trazado 912780" d="M151.457,63.47,149.8,64.478A15.352,15.352,0,0,1,151.457,63.47Z" transform="translate(-144.63 -63.47)" fill="#f2bb88"/>
              <path id="Trazado_912781" data-name="Trazado 912781" d="M184.023,85.283l-6.964,16.193a14.571,14.571,0,0,0-3.472-7.961c-6.434-7.287-16.6-2.587-26.148-17.287a0,0,0,0,1,0-.005c-.14-.215-.279-.435-.419-.657a1.08,1.08,0,0,0-1.805-.047c-.4.571-.8,1.123-1.214,1.652-2.156,2.748-4.59,4.845-7.924,5.748-4,1.084-9.021,7.972-10.213,9.677.359-1.41.781-2.965,1.261-4.71l3.908-23.409,1.659-1.008Z" transform="translate(-125.86 -63.468)" fill="#f2bb88"/>
              <path id="Trazado_912782" data-name="Trazado 912782" d="M151.457,63.47,149.8,64.478A15.352,15.352,0,0,1,151.457,63.47Z" transform="translate(-144.63 -63.47)" fill="#f2bb88"/>
            </g>
            <path id="Trazado_912783" data-name="Trazado 912783" d="M134.072,47.073c-.7,1.08-1.5,3.747-2.245,4.695-2.155,2.747-4.591,4.846-7.924,5.748-4.572,1.238-9.095,8.736-9.095,8.736-5.141-1.415-5.316-9.726-3.865-15,3.384-12.291,12.612-16.527,20.373-14.327a10.906,10.906,0,0,1,2.8,1.224c.5.309.945,1.163,1.418,1.584.592-.359,1.234-1.182,1.846-1.482a25.431,25.431,0,0,1,18.227-1.284c2.578.725,4.6,2.087,7.045,3.485,17.6,10.049,13.648,37.634,2.207,38.522a17.76,17.76,0,0,0,.092-2.086,14.524,14.524,0,0,0-3.533-8.781c-6.434-7.288-16.6-2.587-26.148-17.287C134.838,50.162,134.5,47.818,134.072,47.073Z" transform="translate(-89.287 -35.877)" fill="#7a6d79"/>
            <path id="Trazado_912784" data-name="Trazado 912784" d="M321.6,82s.052-.252.108-.577a11.507,11.507,0,0,0,.154-2.513c7.89-6.779,9.168-29.25-5.928-37.87a34.354,34.354,0,0,0-5.655-2.591,32.915,32.915,0,0,1,9.819,3.738c17.6,10.05,12.944,38.926,1.5,39.813Z" transform="translate(-246.198 -37.894)" fill="#685e68"/>
            <path id="Trazado_912785" data-name="Trazado 912785" d="M275.352,401.746c3.3-6.3,4.818-14.359,5.507-19.9a1.941,1.941,0,0,0-1.369-2.1l-2.739-.824a8.716,8.716,0,0,0,.227-3.236l-.035-.311,4.443,1.336,13.265,3.99c5.477,1.647,3.02,18.258,3.02,18.258l-19.452,4.293h-3.655Z" transform="translate(-218.197 -302.074)" fill="#f0e9e6"/>
            <path id="Trazado_912786" data-name="Trazado 912786" d="M320.176,407.094a2.159,2.159,0,0,0,2.126-2.538l-2.481-7.828c-1.2-6.887-5.159-11.133-11.852-13.147l-6.5-1.682c-1.588-.477-1.976-1.212-2.095.441-.03.421-1.627.763-1.67,1.249-.513,5.887-1.989,16.28-6.206,24.322h27.439Z" transform="translate(-231.472 -306.735)" fill="#bae6ef"/>
            <path id="Trazado_912787" data-name="Trazado 912787" d="M320.234,378.172l7.058,2.122a18.253,18.253,0,0,1,12.792,14.431l1.384,7.768h2.14a2.159,2.159,0,0,0,2.127-2.537l-1.548-8.686a18.253,18.253,0,0,0-12.792-14.431l-7.721-2.321a2.589,2.589,0,0,0-3.329,2.291C320.314,377.231,320.277,377.687,320.234,378.172Z" transform="translate(-254.007 -301.318)" fill="#94d8e6"/>
          </g>
          <g id="Grupo_1118557" data-name="Grupo 1118557" transform="translate(0 0)">
            <path id="Trazado_912788" data-name="Trazado 912788" d="M144.384,457.6a1.619,1.619,0,1,0-3.107.914c1.515,5.148,2.934,8.745,2.993,8.9a1.619,1.619,0,0,0,3.011-1.193C147.268,466.179,145.855,462.595,144.384,457.6Z" transform="translate(-112.096 -357.889)"/>
            <path id="Trazado_912789" data-name="Trazado 912789" d="M216.215,260.36a6.584,6.584,0,0,1-3.977-1.154,1.619,1.619,0,1,0-1.841,2.664,9.84,9.84,0,0,0,5.565,1.733c.127,0,.255,0,.382-.008a1.619,1.619,0,0,0-.129-3.236Z" transform="translate(-165.796 -203.017)"/>
            <path id="Trazado_912790" data-name="Trazado 912790" d="M272.743,232.656l-4.642-4.036a1.619,1.619,0,1,0-2.125,2.444l4.642,4.037a1.619,1.619,0,0,0,2.125-2.444Z" transform="translate(-209.487 -178.947)"/>
            <path id="Trazado_912791" data-name="Trazado 912791" d="M182.22,210.929a1.619,1.619,0,0,0-1.844-1.357l-6.081.925a1.619,1.619,0,0,0,.241,3.22,1.638,1.638,0,0,0,.245-.019l6.081-.925A1.619,1.619,0,0,0,182.22,210.929Z" transform="translate(-136.958 -164.309)"/>
            <path id="Trazado_912792" data-name="Trazado 912792" d="M197.006,299.525a6.819,6.819,0,0,0-5.51.55,1.619,1.619,0,0,0,1.757,2.72,4.295,4.295,0,0,1,5.171,1.5,1.619,1.619,0,1,0,2.94-1.357A6.817,6.817,0,0,0,197.006,299.525Z" transform="translate(-150.943 -234.6)"/>
            <path id="Trazado_912793" data-name="Trazado 912793" d="M114.154,29.686c.01-2.467-2.249-4.5-6.906-6.227A78.207,78.207,0,0,0,91.789,19.98a23.622,23.622,0,0,0-6.612-7.768A1.619,1.619,0,0,0,83.225,14.8c6.648,5.023,9.1,13.643,8.5,21.242-3.606.509-7.653.93-12.093,1.228-2.493-2.127-5.345-3.06-8.333-4.036C65.8,31.434,60.122,29.573,54.582,19.9l1.471-8.076C62.18,8.5,69.6,8.339,77.042,11.388a1.619,1.619,0,0,0,1.228-3c-8.132-3.332-16.623-3.157-23.493.445a12.26,12.26,0,0,0-3.932-1.963,16.116,16.116,0,0,0-6.608-.554A83.551,83.551,0,0,0,28.307.552c-5-1.077-8.065-.586-9.376,1.5-.923,1.47-.741,3.433.542,5.834a1.619,1.619,0,0,0,2.856-1.526c-.773-1.447-.836-2.3-.655-2.585.493-.784,4.814-1.548,17.718,3.935-.328.152-.655.312-.976.487a19.523,19.523,0,0,0-7.675,7.864c-1.515-1.4-2.881-2.752-4.07-4.031A1.619,1.619,0,1,0,24.3,14.238c1.45,1.559,3.125,3.2,4.991,4.9q-.245.615-.471,1.271c-11.786,2.141-17.769,5.119-17.783,8.857-.013,3.395,4.528,6.079,13.864,8.184a7.311,7.311,0,0,0-2.038,3.344,10.25,10.25,0,0,0,6.379,12.5,27.492,27.492,0,0,0,1.484,5.832c2.434,6.834,5.78,12.316,9.653,16l-.55,4.715L34.8,81.346a4.206,4.206,0,0,0-4.849-1.917l-7.7,2.319a21.159,21.159,0,0,0-9.184,5.866,19.948,19.948,0,0,0-4.7,9.814L6.383,108.637a1.619,1.619,0,1,0,3.188.567l1.995-11.216a16.716,16.716,0,0,1,3.924-8.218,17.4,17.4,0,0,1,7.7-4.921l7.7-2.319a.962.962,0,0,1,1.238.853,69.87,69.87,0,0,0,1.506,9.861,1.619,1.619,0,1,0,3.163-.7,70.182,70.182,0,0,1-1.318-8.024l4.157-1.253a10.079,10.079,0,0,0,2.156,5.457c1.911,2.375,5.6,5.206,12.346,5.206S64.575,91.1,66.485,88.729a10.082,10.082,0,0,0,2.161-5.515l4.166,1.266A87.956,87.956,0,0,1,71.19,95.369l-2,7.206A41.568,41.568,0,0,1,66.8,108.17a1.619,1.619,0,1,0,2.869,1.5,44.939,44.939,0,0,0,2.6-6.083c.011-.032.021-.065.03-.1l2.025-7.3c.008-.029.015-.059.022-.088a92.116,92.116,0,0,0,1.8-12.719.962.962,0,0,1,1.238-.853l7.7,2.319A16.611,16.611,0,0,1,96.711,98L98.7,109.2a1.619,1.619,0,0,0,3.188-.567L99.9,97.435A19.83,19.83,0,0,0,86.018,81.748l-7.7-2.319A4.2,4.2,0,0,0,73.5,81.3l-5.055-1.536-.482-4.141a53.549,53.549,0,0,0,5.852-4,27.6,27.6,0,0,0,4.378-4.13A10.236,10.236,0,0,0,90.265,60.35a7.136,7.136,0,0,0,.059-3.873c1.611.568,3.125,1.047,4.524,1.424a25.764,25.764,0,0,0,6.485,1.047c2.437,0,4.065-.683,4.925-2.053,1.213-1.932.549-4.608-2.031-8.182a64.843,64.843,0,0,0-9.429-9.88c8.907-1.451,15.37-3.552,17.9-6.059a4.341,4.341,0,0,0,1.451-3.087ZM84.991,49.64a16.015,16.015,0,0,0-2.681-9.334c3.151-.253,6.145-.57,8.943-.947-.147.713-.32,1.411-.522,2.086-1.226,4.078-3.327,7.02-5.739,8.195Zm-14.7-13.333c1.256.41,2.448.8,3.565,1.265-4.232.17-9,.232-13.663.159q-1-.616-2-1.243c-3.966-2.49-7.8-5.058-11.407-7.621a20.82,20.82,0,0,0,5.984-5.7C58.668,32.51,65.073,34.6,70.289,36.308Zm-37.328-.985a6.5,6.5,0,0,1-2.134-4.287,20.059,20.059,0,0,1,.613-8.188c.14-.483.294-.951.454-1.411,2.518,2.162,5.313,4.4,8.331,6.666-3.176,1.768-5.935,5.316-7.264,7.22ZM43.12,30.38c.047-.012.092-.027.138-.04,3.32,2.4,6.866,4.823,10.573,7.213-6.223-.253-12.128-.734-17.451-1.418,1.723-2.26,4.378-5.153,6.74-5.756ZM39.966,11.043a12.927,12.927,0,0,1,9.953-1.066,9.094,9.094,0,0,1,2.913,1.455l-1.481,8.134c-2.283,3.367-4.513,5.907-7.521,7.167-3.917-2.885-7.5-5.736-10.6-8.439A16.662,16.662,0,0,1,39.966,11.043ZM14.274,29.276c0-.606,2.392-3.174,13.589-5.392a22.636,22.636,0,0,0-.233,7.663,12.479,12.479,0,0,0,1,3.368c-10.768-1.961-14.535-4.8-14.36-5.639Zm11.7,12.418c.676-2.405,3.248-3.358,5.5-2.994-1.34,4.683-2.166,7.972-2.345,10.977A7.016,7.016,0,0,1,25.971,41.694ZM65.393,81.577A6.929,6.929,0,0,1,63.961,86.7c-2.134,2.653-5.439,4-9.823,4s-7.689-1.345-9.823-4a6.928,6.928,0,0,1-1.431-5.124l.473-4.056a17.062,17.062,0,0,0,4.732,2.254,16.827,16.827,0,0,0,4.7.639,28.188,28.188,0,0,0,12.1-3.138Zm6.425-12.5c-8.423,6.589-16.742,9.356-22.826,7.591S37.364,68.109,33.775,58.034c-2.288-6.424-1.709-9.68.929-18.854a214.34,214.34,0,0,0,24.547,1.774c3.081,1.88,6.163,3.672,9.2,5.344a1.619,1.619,0,1,0,1.564-2.836Q67.845,42.269,65.652,41c4.424-.027,8.7-.169,12.761-.416.112.119.224.239.333.365a12.845,12.845,0,0,1,3.007,8.494q-2.51-1.162-5.185-2.511a1.619,1.619,0,0,0-1.46,2.891q3.1,1.567,6.005,2.89c-2.722,9.3-3.9,12.143-9.3,16.364Zm15.338-9.625A7.008,7.008,0,0,1,80.222,64.5,52.435,52.435,0,0,0,84.1,54.037C86.048,54.969,87.9,56.871,87.155,59.448Zm16.361-4.276c-.318.507-2.362,1.075-7.824-.4A72.885,72.885,0,0,1,87.5,51.942c2.75-1.792,4.992-5.115,6.329-9.565l.014-.049c9.154,8.341,10.108,12.147,9.67,12.843Zm6.909-24.7c-1.838,1.819-7.232,3.673-15.409,5.056a30.622,30.622,0,0,0-1.672-12.042c14.339,2.249,17.576,5.19,17.572,6.187A1.391,1.391,0,0,1,110.425,30.471Z" transform="translate(-6.358 0.002)"/>
          </g>
        </g>
      </g>
    </g>
    <g id="Grupo_1118561" data-name="Grupo 1118561" transform="translate(0 151.203)">
      <g id="Elipse_11817-2" data-name="Elipse 11817" transform="translate(631.051 2315)" fill="#d7e9ff" stroke="#5c88be" stroke-width="5">
        <circle cx="70.5" cy="70.5" r="70.5" stroke="none"/>
        <circle cx="70.5" cy="70.5" r="68" fill="none"/>
      </g>
      <g id="Enmascarar_grupo_1098797-2" data-name="Enmascarar grupo 1098797" transform="translate(637.729 2321.678)" clip-path="url(#clip-path)">
        <g id="Grupo_1118567" data-name="Grupo 1118567" transform="translate(6.157 21.402)">
          <g id="Grupo_1118581" data-name="Grupo 1118581" transform="translate(2.805 2.805)">
            <g id="Grupo_1118567-2" data-name="Grupo 1118567" transform="translate(48.739 97.478)">
              <path id="Trazado_912830" data-name="Trazado 912830" d="M36.221,56l3.61,10.831H29L32.61,56Z" transform="translate(-29 -56)" fill="#ffeaa7"/>
            </g>
            <g id="Grupo_1118568" data-name="Grupo 1118568" transform="translate(50.652 90.257)">
              <path id="Trazado_912831" data-name="Trazado 912831" d="M37.064,54.112l-1.7,5.109h-3.61l-1.7-5.109L33.562,52Z" transform="translate(-30.06 -52)" fill="#fcd770"/>
            </g>
            <g id="Grupo_1118569" data-name="Grupo 1118569" transform="translate(55.96 87.568)">
              <path id="Trazado_912832" data-name="Trazado 912832" d="M34.7,55.312l5.524,3.3,1.625-8.105A22.012,22.012,0,0,1,56.467,71.251H36.61L33,60.42Z" transform="translate(-33 -50.51)" fill="#4fc1e9"/>
            </g>
            <g id="Grupo_1118570" data-name="Grupo 1118570" transform="translate(28.882 87.568)">
              <path id="Trazado_912833" data-name="Trazado 912833" d="M41.467,60.42l-3.61,10.831H18A22.03,22.03,0,0,1,32.622,50.51l1.625,8.105,5.524-3.3Z" transform="translate(-18 -50.51)" fill="#4fc1e9"/>
            </g>
            <g id="Grupo_1118571" data-name="Grupo 1118571" transform="translate(54.154 86.647)">
              <path id="Trazado_912834" data-name="Trazado 912834" d="M42.65,50.921l-1.625,8.105-5.524-3.3L32,53.61,39.221,50l.343.072a24.255,24.255,0,0,1,3.087.848Z" transform="translate(-32 -50)" fill="#3bafda"/>
            </g>
            <g id="Grupo_1118572" data-name="Grupo 1118572" transform="translate(43.504 86.647)">
              <path id="Trazado_912835" data-name="Trazado 912835" d="M36.75,53.61l-3.5,2.112-5.524,3.3L26.1,50.921a24.257,24.257,0,0,1,3.087-.848L29.53,50Z" transform="translate(-26.1 -50)" fill="#3bafda"/>
            </g>
            <g id="Grupo_1118573" data-name="Grupo 1118573" transform="translate(46.934 82.116)">
              <path id="Trazado_912836" data-name="Trazado 912836" d="M40.925,47.49l1.516,4.531-7.221,3.61L28,52.021l1.516-4.531a18.132,18.132,0,0,0,11.409,0Z" transform="translate(-28 -47.49)" fill="#f0d0b4"/>
            </g>
            <g id="Grupo_1118574" data-name="Grupo 1118574" transform="translate(71.087 0)">
              <path id="Trazado_912837" data-name="Trazado 912837" d="M45.189,29.438l16.373,6.535,2.6-19.532-3.52-1.769A6.693,6.693,0,0,1,63.637,2a7.356,7.356,0,0,1,7.2,5.813L78.422,42.67A7.843,7.843,0,0,1,78.6,44.4a8.135,8.135,0,0,1-8.141,8.141A11.27,11.27,0,0,1,68.71,52.4L42.5,48.031l-1.119-.181A9.03,9.03,0,0,0,42.5,32.688a8.666,8.666,0,0,0,2.672-3.249Z" transform="translate(-41.38 -2)" fill="#f0d0b4"/>
            </g>
            <g id="Grupo_1118575" data-name="Grupo 1118575" transform="translate(36.103 45.851)">
              <path id="Trazado_912838" data-name="Trazado 912838" d="M36.441,32.093a7.022,7.022,0,0,0,3.61-.975,7.022,7.022,0,0,0,3.61.975,7.177,7.177,0,0,0,6.444-4.025,9.416,9.416,0,0,0,2.581.415,9.082,9.082,0,0,0,4.3-1.083l1.119.181V46.535a18.051,18.051,0,1,1-36.1,0V27.581l1.119-.181a9.082,9.082,0,0,0,4.3,1.083A9.416,9.416,0,0,0,30,28.068,7.177,7.177,0,0,0,36.441,32.093Z" transform="translate(-22 -27.4)" fill="#f0d0b4"/>
            </g>
            <g id="Grupo_1118576" data-name="Grupo 1118576" transform="translate(28.882 57.765)">
              <path id="Trazado_912839" data-name="Trazado 912839" d="M25.582,44.831H23.415a5.415,5.415,0,1,1,0-10.831h1.805v7.221a18.139,18.139,0,0,0,.361,3.61Z" transform="translate(-18 -34)" fill="#f0d0b4"/>
            </g>
            <g id="Grupo_1118577" data-name="Grupo 1118577" transform="translate(71.845 57.765)">
              <path id="Trazado_912840" data-name="Trazado 912840" d="M43.966,34a5.415,5.415,0,0,1,0,10.831H41.8a18.138,18.138,0,0,0,.361-3.61V34Z" transform="translate(-41.8 -34)" fill="#f0d0b4"/>
            </g>
            <g id="Grupo_1118578" data-name="Grupo 1118578" transform="translate(0 0)">
              <path id="Trazado_912841" data-name="Trazado 912841" d="M34.493,39.908a9.038,9.038,0,0,0,4.729,7.943l-1.119.181L11.892,52.4a11.27,11.27,0,0,1-1.751.144A8.135,8.135,0,0,1,2,44.4a7.842,7.842,0,0,1,.181-1.733L9.762,7.813A7.356,7.356,0,0,1,16.965,2a6.688,6.688,0,0,1,3,12.672l-3.52,1.769,2.6,19.532,16.373-6.535h.018A8.666,8.666,0,0,0,38.1,32.688a9.043,9.043,0,0,0-3.61,7.221Z" transform="translate(-2 -2)" fill="#f0d0b4"/>
            </g>
            <g id="Grupo_1118579" data-name="Grupo 1118579" transform="translate(46.934 68.596)">
              <path id="Trazado_912842" data-name="Trazado 912842" d="M28,40H42.441A7.221,7.221,0,1,1,28,40Z" transform="translate(-28 -40)" fill="#ff826e"/>
            </g>
            <g id="Grupo_1118580" data-name="Grupo 1118580" transform="translate(32.493 10.831)">
              <path id="Trazado_912843" data-name="Trazado 912843" d="M59.713,27.857a9.165,9.165,0,0,0,3.61-7.221A9.029,9.029,0,0,0,54.3,11.61a8.637,8.637,0,0,0-2.563.379h-.018A7.177,7.177,0,0,0,45.272,8a7.022,7.022,0,0,0-3.61.975A7.022,7.022,0,0,0,38.051,8a7.177,7.177,0,0,0-6.444,3.989h-.018a8.637,8.637,0,0,0-2.563-.379A9.029,9.029,0,0,0,20,20.636a9.165,9.165,0,0,0,3.61,7.221A9.022,9.022,0,0,0,29.026,44.1a9.416,9.416,0,0,0,2.581-.415,7.177,7.177,0,0,0,6.444,4.025,7.022,7.022,0,0,0,3.61-.975,7.022,7.022,0,0,0,3.61.975,7.177,7.177,0,0,0,6.444-4.025A9.416,9.416,0,0,0,54.3,44.1a9.026,9.026,0,0,0,5.415-16.246Z" transform="translate(-20 -8)" fill="#dfb28b"/>
            </g>
          </g>
          <g id="Grupo_1118582" data-name="Grupo 1118582" transform="translate(1 1)">
            <path id="Trazado_912844" data-name="Trazado 912844" d="M35.831,34.805V33h-3.61v1.805a1.805,1.805,0,1,1-3.61,0V33H25v1.805a5.415,5.415,0,0,0,10.831,0Z" transform="translate(18.324 24.765)"/>
            <path id="Trazado_912845" data-name="Trazado 912845" d="M40.221,34.805a1.805,1.805,0,1,1-3.61,0V33H33v1.805a5.415,5.415,0,1,0,10.831,0V33h-3.61Z" transform="translate(24.765 24.765)"/>
            <path id="Trazado_912846" data-name="Trazado 912846" d="M27,40.805a9.026,9.026,0,0,0,18.051,0V39H27ZM41.133,42.61a5.417,5.417,0,0,1-10.214,0Z" transform="translate(19.934 29.596)"/>
            <path id="Trazado_912847" data-name="Trazado 912847" d="M31,1h3.61V8.221H31Z" transform="translate(23.154 -1)"/>
            <path id="Trazado_912848" data-name="Trazado 912848" d="M0,0H3.61V7.221H0Z" transform="translate(41.174 3.29) rotate(-22.514)"/>
            <path id="Trazado_912849" data-name="Trazado 912849" d="M0,0H3.61V7.221H0Z" transform="translate(30.428 11.329) rotate(-45)"/>
            <path id="Trazado_912850" data-name="Trazado 912850" d="M0,0H7.221V3.61H0Z" transform="translate(64.667 8.58) rotate(-67.486)"/>
            <path id="Trazado_912851" data-name="Trazado 912851" d="M0,0H7.221V3.61H0Z" transform="translate(73.821 13.883) rotate(-45)"/>
            <path id="Trazado_912852" data-name="Trazado 912852" d="M112.692,43.083,105.114,8.226A9.23,9.23,0,0,0,96.146,1a8.5,8.5,0,0,0-3.8,16.1l2.368,1.182L92.586,34.245,80.01,29.214A10.8,10.8,0,0,0,69.6,15.441a11.047,11.047,0,0,0-1.728.148A8.991,8.991,0,0,0,56.96,12.582a8.991,8.991,0,0,0-10.909,3.007,11.047,11.047,0,0,0-1.728-.148A10.8,10.8,0,0,0,33.91,29.214L21.333,34.245,19.2,18.284l2.37-1.182A8.5,8.5,0,0,0,17.773,1,9.23,9.23,0,0,0,8.805,8.228L1.227,43.085a9.954,9.954,0,0,0,9.728,12.069,12.109,12.109,0,0,0,2.036-.17L37.1,50.968v7.8a7.221,7.221,0,1,0,0,14.441h.769A19.921,19.921,0,0,0,49,85.968l-.652,1.955a23.873,23.873,0,0,0-18.463,23.191v1.805H84.037v-1.805A23.875,23.875,0,0,0,65.574,87.921l-.652-1.953A19.926,19.926,0,0,0,76.047,73.206h.769a7.221,7.221,0,1,0,0-14.441v-7.8l24.108,4.016a12.183,12.183,0,0,0,2.04.17,9.955,9.955,0,0,0,9.728-12.071ZM65.985,20.857a5.43,5.43,0,0,1-.171,1.356l3.5.9a9.057,9.057,0,0,0,.1-4.047c.06,0,.119-.013.181-.013a7.228,7.228,0,0,1,7.221,7.221A7.122,7.122,0,0,1,74.8,31.22,10.775,10.775,0,0,0,69.6,29.882v3.61a7.221,7.221,0,0,1,0,14.441,7.122,7.122,0,0,1-2.06-.343l-1.459-.437L65.4,48.519a5.242,5.242,0,0,1-6.636,2.675V37.1a3.614,3.614,0,0,1,3.61,3.61h3.61a7.228,7.228,0,0,0-7.221-7.221v-17.7a5.321,5.321,0,0,1,7.221,5.065ZM44.324,19.051c.061,0,.121.011.181.013a9.057,9.057,0,0,0,.1,4.047l3.5-.9a5.34,5.34,0,0,1,7.049-6.421V29.882a3.614,3.614,0,0,1-3.61-3.61h-3.61a7.228,7.228,0,0,0,7.221,7.221V37.1a7.228,7.228,0,0,0-7.221,7.221h3.61a3.614,3.614,0,0,1,3.61-3.61V51.194a5.241,5.241,0,0,1-6.636-2.677l-.677-1.365-1.459.437a7.069,7.069,0,0,1-2.06.345,7.221,7.221,0,1,1,0-14.441v-3.61a10.775,10.775,0,0,0-5.206,1.338A7.122,7.122,0,0,1,37.1,26.272a7.228,7.228,0,0,1,7.221-7.221ZM12.394,51.425a8.645,8.645,0,0,1-1.439.119,6.346,6.346,0,0,1-6.2-7.692L12.333,9A5.6,5.6,0,0,1,17.773,4.61a4.889,4.889,0,0,1,2.186,9.262l-4.672,2.336,3.78,28.353,3.578-.477-.82-6.147L35.46,32.485a10.3,10.3,0,0,0,.811,1.011,10.776,10.776,0,0,0-.37,14.012ZM37.1,69.6a3.61,3.61,0,1,1,0-7.221V67.79c0,.61.038,1.209.092,1.805ZM64.418,91.351c.37.079.735.168,1.1.267l-.8,3.993-4.009-2.4Zm-7.963,10.737h1.007l2.406,7.221H54.048Zm1.007-3.61H56.456l-.836-2.507,1.339-.8,1.339.8ZM49.2,95.611l-.8-3.993q.542-.149,1.1-.267l3.71,1.854Zm-4.226-2.722,1.691,8.455,5.782-3.469.8,2.408-3.009,9.026H33.574a20.3,20.3,0,0,1,11.4-16.42Zm35.37,16.42H63.677l-3.009-9.026.8-2.408,5.782,3.469,1.691-8.455A20.3,20.3,0,0,1,80.345,109.309ZM61.972,88.537,56.96,91.044l-5.013-2.507.478-1.433a19.193,19.193,0,0,0,9.069,0Zm-5.013-4.5A16.265,16.265,0,0,1,40.713,67.79V50.912a10.742,10.742,0,0,0,3.61.632,9.535,9.535,0,0,0,1.719-.161,8.931,8.931,0,0,0,7.307,3.771,9.053,9.053,0,0,0,3.61-.751,9.053,9.053,0,0,0,3.61.751,8.931,8.931,0,0,0,7.307-3.771,9.535,9.535,0,0,0,1.719.161,10.787,10.787,0,0,0,3.61-.632V67.79A16.265,16.265,0,0,1,56.96,84.037ZM80.427,65.985a3.614,3.614,0,0,1-3.61,3.61h-.092c.054-.6.092-1.195.092-1.805V62.375A3.614,3.614,0,0,1,80.427,65.985Zm22.537-14.441a8.72,8.72,0,0,1-1.442-.119l-23.5-3.915a10.778,10.778,0,0,0-.37-14.013,11.1,11.1,0,0,0,.811-1.011l13.634,5.453-.82,6.147,3.578.477,3.78-28.353L93.96,13.873A4.889,4.889,0,0,1,96.146,4.61,5.6,5.6,0,0,1,101.586,9l7.578,34.857a6.344,6.344,0,0,1-6.2,7.69Z" transform="translate(-1 -1)"/>
          </g>
        </g>
      </g>
    </g>
    <g id="Grupo_1118559" data-name="Grupo 1118559" transform="translate(202 -15.797)">
      <g id="Elipse_11817-3" data-name="Elipse 11817" transform="translate(631.051 2315)" fill="#d7e9ff" stroke="#5c88be" stroke-width="5">
        <circle cx="70.5" cy="70.5" r="70.5" stroke="none"/>
        <circle cx="70.5" cy="70.5" r="68" fill="none"/>
      </g>
      <g id="Enmascarar_grupo_1098797-3" data-name="Enmascarar grupo 1098797" transform="translate(637.729 2321.678)" clip-path="url(#clip-path)">
        <g id="Grupo_1118562" data-name="Grupo 1118562" transform="translate(12.21 22.628)">
          <g id="Grupo_1118565" data-name="Grupo 1118565" transform="translate(3.483 1.625)">
            <g id="Grupo_1118562-2" data-name="Grupo 1118562">
              <path id="Trazado_912794" data-name="Trazado 912794" d="M39.962,7.5H19.579a2.374,2.374,0,0,0-2.374,2.374V20.1L10.181,22.99a1.328,1.328,0,0,0,0,2.457l7.025,2.886V38.78a2.374,2.374,0,0,0,2.374,2.374H39.963a2.374,2.374,0,0,0,2.374-2.374V9.874A2.374,2.374,0,0,0,39.962,7.5Z" transform="translate(-9.357 -7.5)" fill="#fea3ce"/>
            </g>
            <path id="Trazado_912795" data-name="Trazado 912795" d="M127.069,7.5h-6.511a2.374,2.374,0,0,1,2.374,2.374V38.78a2.374,2.374,0,0,1-2.374,2.374h6.511a2.374,2.374,0,0,0,2.374-2.374V9.874A2.374,2.374,0,0,0,127.069,7.5Z" transform="translate(-96.465 -7.5)" fill="#fe7ab6"/>
            <g id="Grupo_1118563" data-name="Grupo 1118563" transform="translate(7.305 12.54)">
              <path id="Trazado_912796" data-name="Trazado 912796" d="M165.07,144.78v27.9a11.646,11.646,0,0,0,11.646,11.646v9.6H193.59v-9.6a11.646,11.646,0,0,0,11.646-11.646v-27.9Z" transform="translate(-138.638 -127.576)" fill="#d78878"/>
              <path id="Trazado_912797" data-name="Trazado 912797" d="M278.3,144.78v27.9a11.649,11.649,0,0,1-9.628,11.472,2.458,2.458,0,0,0-2.018,2.429v7.341h6.511v-9.6a11.646,11.646,0,0,0,11.646-11.646v-27.9Z" transform="translate(-218.209 -127.576)" fill="#ca6e59"/>
              <path id="Trazado_912798" data-name="Trazado 912798" d="M196.216,371.6v26.916a1.879,1.879,0,0,1-1.879,1.879H151.029a1.879,1.879,0,0,1-1.879-1.879V371.6Z" transform="translate(-126.167 -305.25)" fill="#eaf9fa"/>
              <path id="Trazado_912799" data-name="Trazado 912799" d="M196.216,371.6v26.916a1.879,1.879,0,0,1-1.879,1.879H151.029a1.879,1.879,0,0,1-1.879-1.879V371.6Z" transform="translate(-126.167 -305.25)" fill="#eaf9fa"/>
              <path id="Trazado_912800" data-name="Trazado 912800" d="M329.529,371.6v26.916a1.879,1.879,0,0,1-1.879,1.879h6.511a1.879,1.879,0,0,0,1.879-1.879V371.6Z" transform="translate(-265.992 -305.25)" fill="#d4f2f6"/>
              <path id="Trazado_912801" data-name="Trazado 912801" d="M137.042,213.558h-3.11a4.642,4.642,0,0,0,0,9.285h3.11Z" transform="translate(-110.609 -181.453)" fill="#ca6e59"/>
              <path id="Trazado_912802" data-name="Trazado 912802" d="M386.766,400.4h-13.2a3.953,3.953,0,0,1-3.325-1.815l-3.86-6V371.608a13.223,13.223,0,0,1,11.284,6.33l11.315,18.522A2.591,2.591,0,0,1,386.766,400.4Z" transform="translate(-296.328 -305.258)" fill="#eaf9fa"/>
              <path id="Trazado_912803" data-name="Trazado 912803" d="M388.976,396.46l-11.315-18.522a13.223,13.223,0,0,0-11.284-6.33v1.715a13.216,13.216,0,0,1,4.773,4.615l11.315,18.522a2.59,2.59,0,0,1-2.211,3.941h6.511A2.591,2.591,0,0,0,388.976,396.46Z" transform="translate(-296.328 -305.258)" fill="#d4f2f6"/>
              <path id="Trazado_912804" data-name="Trazado 912804" d="M45.669,400.4h13.2a3.954,3.954,0,0,0,3.325-1.815l3.86-6V371.608a13.223,13.223,0,0,0-11.284,6.33L43.458,396.46A2.591,2.591,0,0,0,45.669,400.4Z" transform="translate(-43.074 -305.258)" fill="#d4f2f6"/>
              <path id="Trazado_912805" data-name="Trazado 912805" d="M143.7,79.879a89.4,89.4,0,0,0,.715,11.285l.8,6.321h3.11L152.809,84.8a2.457,2.457,0,0,1,3.019-1.536c3.423,1.02,9.855,2.822,12.584,2.822s9.161-1.8,12.584-2.822a2.457,2.457,0,0,1,3.019,1.536L188.5,97.484H191.6l.8-6.321a89.358,89.358,0,0,0,.715-11.285,14.5,14.5,0,0,0-14.5-14.5H158.2A14.5,14.5,0,0,0,143.7,79.879Z" transform="translate(-121.898 -65.379)" fill="#678d98"/>
              <path id="Trazado_912806" data-name="Trazado 912806" d="M295.853,79.879a89.306,89.306,0,0,1-.717,11.284l-.8,6.322h-3.109l-2.5-7.087a89.367,89.367,0,0,0,.622-10.519,14.5,14.5,0,0,0-14.5-14.5h6.511a14.5,14.5,0,0,1,14.5,14.5Z" transform="translate(-224.625 -65.38)" fill="#537983"/>
            </g>
            <g id="Grupo_1118564" data-name="Grupo 1118564" transform="translate(73.904 33.654)">
              <path id="Trazado_912807" data-name="Trazado 912807" d="M352.828,162.826h20.383a2.374,2.374,0,0,1,2.374,2.374V175.43l7.025,2.886a1.328,1.328,0,0,1,0,2.457l-7.025,2.886v10.447a2.374,2.374,0,0,1-2.374,2.374H352.828a2.374,2.374,0,0,1-2.374-2.374V165.2A2.374,2.374,0,0,1,352.828,162.826Z" transform="translate(-350.454 -162.826)" fill="#fea3ce"/>
            </g>
            <path id="Trazado_912808" data-name="Trazado 912808" d="M441.344,178.316l-7.025-2.886V165.2a2.374,2.374,0,0,0-2.374-2.374h-6.512a2.374,2.374,0,0,1,2.374,2.374v8.72a2.254,2.254,0,0,0,1.4,2.085l5.627,2.312a1.328,1.328,0,0,1,0,2.457l-5.627,2.312a2.254,2.254,0,0,0-1.4,2.085v8.936a2.374,2.374,0,0,1-2.374,2.374h6.512a2.374,2.374,0,0,0,2.374-2.374V183.659l7.025-2.886A1.328,1.328,0,0,0,441.344,178.316Z" transform="translate(-335.284 -129.172)" fill="#fe7ab6"/>
          </g>
          <g id="Grupo_1118566" data-name="Grupo 1118566" transform="translate(1.858 0)">
            <path id="Trazado_912809" data-name="Trazado 912809" d="M251.883,212.152a1.625,1.625,0,0,0,1.625-1.625v-3.3a1.625,1.625,0,0,0-3.25,0v3.3A1.625,1.625,0,0,0,251.883,212.152Z" transform="translate(-196.438 -161.059)"/>
            <path id="Trazado_912810" data-name="Trazado 912810" d="M297.1,442.259h5.649a1.625,1.625,0,1,0,0-3.25H297.1a1.625,1.625,0,1,0,0,3.25Z" transform="translate(-231.859 -343.89)"/>
            <path id="Trazado_912811" data-name="Trazado 912811" d="M242.109,253.288c-4.526-3.449-8.748-1.425-10.347.126a1.625,1.625,0,0,0,2.262,2.333c.107-.1,2.658-2.508,6.115.126a1.625,1.625,0,0,0,1.97-2.585Z" transform="translate(-181.563 -196.927)"/>
            <path id="Trazado_912812" data-name="Trazado 912812" d="M110.16,49.266l-6.017-2.472V37.653a4,4,0,0,0-4-4H83.5c.092-1.661.139-3.333.139-4.989.2-8.526-7.413-16.316-16.126-16.124H47.09a16.17,16.17,0,0,0-9,2.758V4a4,4,0,0,0-4-4H13.7a4,4,0,0,0-4,4v9.14L3.688,15.612a2.953,2.953,0,0,0,0,5.462l6.017,2.472V32.9a4,4,0,0,0,4,4H25.172a1.625,1.625,0,1,0,0-3.25H13.7a.749.749,0,0,1-.747-.75V22.457a1.625,1.625,0,0,0-1.008-1.5L5.593,18.343l6.356-2.611a1.625,1.625,0,0,0,1.008-1.5V4a.749.749,0,0,1,.748-.75H34.088a.75.75,0,0,1,.75.75V18.187a16.063,16.063,0,0,0-3.872,10.478,92.507,92.507,0,0,0,.728,11.489l.605,4.76A6.267,6.267,0,0,0,34.11,57.181H35.6v2.089A13.293,13.293,0,0,0,47.242,72.443v6.445H33.772A15.086,15.086,0,0,0,21.1,86L9.786,104.521a4.215,4.215,0,0,0,3.6,6.413h13.2c2.381.114,4.478-1.8,5.56-3.912a3.636,3.636,0,0,0,3.5,3.912H78.958a3.623,3.623,0,0,0,3.5-3.912c1.052,2.037,2.993,3.954,5.56,3.912h13.2a4.216,4.216,0,0,0,3.6-6.413L93.508,86a15.086,15.086,0,0,0-12.671-7.11H67.366V72.444a13.173,13.173,0,0,0,7.759-3.791c.289-.289.561-.59.82-.9a4.006,4.006,0,0,0,3.816,2.8h20.383a4,4,0,0,0,4-4V57.2l6.017-2.472a2.953,2.953,0,0,0,0-5.463ZM37.653,19.908a12.919,12.919,0,0,1,9.437-4.117H67.515A12.983,12.983,0,0,1,80.392,28.665c0,1.657-.049,3.329-.144,4.989a4.177,4.177,0,0,0-4.423,3.319l-1.386-3.923A4.076,4.076,0,0,0,69.423,30.5c-5.87,1.75-10.287,2.753-12.12,2.753s-6.25-1-12.12-2.753a4.082,4.082,0,0,0-5.017,2.552l-4.1,11.6h-.531a114.4,114.4,0,0,1-1.325-15.981,12.828,12.828,0,0,1,3.438-8.757ZM34.11,53.931A3.017,3.017,0,0,1,34.1,47.9H35.6v6.034Zm-5.566,52.684a2.318,2.318,0,0,1-1.958,1.069h-13.2a.965.965,0,0,1-.824-1.469L23.874,87.692a11.681,11.681,0,0,1,8.273-5.436v18.755Zm62.19-18.922,11.315,18.522a.966.966,0,0,1-.824,1.469h-13.2a2.319,2.319,0,0,1-1.958-1.069l-3.6-5.6V82.256a11.682,11.682,0,0,1,8.273,5.436ZM72.827,66.356a9.957,9.957,0,0,1-7.087,2.936,1.625,1.625,0,0,0-1.625,1.625v9.6a1.625,1.625,0,0,0,1.625,1.625H79.212v25.291a.255.255,0,0,1-.254.254H35.651a.255.255,0,0,1-.254-.254V82.138H58.143a1.625,1.625,0,1,0,0-3.25H50.492V70.917a1.625,1.625,0,0,0-1.625-1.625A10.033,10.033,0,0,1,38.846,59.269V46.55l4.385-12.417a.833.833,0,0,1,1.024-.522C48.676,34.929,54.529,36.5,57.3,36.5s8.627-1.571,13.049-2.889a.829.829,0,0,1,1.021.52L75.761,46.55V59.269A9.957,9.957,0,0,1,72.827,66.356ZM101.9,54.609a1.625,1.625,0,0,0-1.007,1.5V66.559a.75.75,0,0,1-.749.749H79.761a.75.75,0,0,1-.749-.749V37.653a.75.75,0,0,1,.749-.749h20.383a.75.75,0,0,1,.749.749V47.883a1.625,1.625,0,0,0,1.007,1.5L108.256,52Z" transform="translate(-1.858 0)"/>
            <path id="Trazado_912813" data-name="Trazado 912813" d="M396.538,59.274a1.619,1.619,0,0,0,1.149-.476l6.058-6.058a1.625,1.625,0,1,0-2.3-2.3L395.389,56.5a1.625,1.625,0,0,0,1.149,2.774Z" transform="translate(-309.751 -39.14)"/>
            <path id="Trazado_912814" data-name="Trazado 912814" d="M415.5,92.5l-3.233,1.672a1.625,1.625,0,1,0,1.493,2.887L417,95.39A1.625,1.625,0,0,0,415.5,92.5Z" transform="translate(-322.658 -72.319)"/>
            <path id="Trazado_912815" data-name="Trazado 912815" d="M100.392,39.32a1.625,1.625,0,1,0-3.25,0V50.482a1.625,1.625,0,1,0,3.25,0Z" transform="translate(-76.497 -29.528)"/>
            <circle id="Elipse_11819" data-name="Elipse 11819" cx="1.625" cy="1.625" r="1.625" transform="translate(20.645 25.27)"/>
            <path id="Trazado_912816" data-name="Trazado 912816" d="M401.506,193.522a1.625,1.625,0,0,0-1.625,1.625v11.162a1.625,1.625,0,1,0,3.25,0V195.147A1.625,1.625,0,0,0,401.506,193.522Z" transform="translate(-313.643 -151.592)"/>
            <circle id="Elipse_11820" data-name="Elipse 11820" cx="1.625" cy="1.625" r="1.625" transform="translate(86.238 59.032)"/>
          </g>
        </g>
      </g>
    </g>
    <g id="Grupo_1118560" data-name="Grupo 1118560" transform="translate(202 151.203)">
      <g id="Elipse_11817-4" data-name="Elipse 11817" transform="translate(631.051 2315)" fill="#d7e9ff" stroke="#5c88be" stroke-width="5">
        <circle cx="70.5" cy="70.5" r="70.5" stroke="none"/>
        <circle cx="70.5" cy="70.5" r="68" fill="none"/>
      </g>
      <g id="Enmascarar_grupo_1098797-4" data-name="Enmascarar grupo 1098797" transform="translate(637.729 2321.678)" clip-path="url(#clip-path)">
        <g id="Grupo_1118583" data-name="Grupo 1118583" transform="translate(8.923 21.863)">
          <g id="Grupo_1118590" data-name="Grupo 1118590" transform="translate(3.078 27.217)">
            <g id="Grupo_1118583-2" data-name="Grupo 1118583" transform="translate(28.203)">
              <path id="Trazado_912853" data-name="Trazado 912853" d="M66.1,61.318a4.255,4.255,0,0,0,0-6.028l-.723-.723a5.314,5.314,0,0,1-1.551-3.737V37.152A21.179,21.179,0,0,0,35.627,17.2l-7.914,4.988a21.085,21.085,0,0,0-6.187,14.965V50.83a5.314,5.314,0,0,1-1.551,3.737l-.723.723a4.255,4.255,0,0,0,0,6.028l1.022,1.022a4.255,4.255,0,0,1,0,6.028l-.511.511h6.116A10.591,10.591,0,0,0,36.05,61.212l.458-1.586a17.654,17.654,0,0,1-7.932-14.754V38.509a7.01,7.01,0,0,1,4.583-6.592l7.086-2.662A6.95,6.95,0,0,0,45.5,32.5l3.525.353,1.41.141a7.042,7.042,0,0,1,6.346,7.015v4.865a17.671,17.671,0,0,1-7.932,14.754l.458,1.586A10.591,10.591,0,0,0,59.476,68.88h6.116l-.511-.511a4.255,4.255,0,0,1,0-6.028Z" transform="translate(-18 -16)" fill="#fcd770"/>
            </g>
            <g id="Grupo_1118584" data-name="Grupo 1118584" transform="translate(0 31.728)">
              <path id="Trazado_912854" data-name="Trazado 912854" d="M97.184,34v3.525A17.633,17.633,0,0,1,79.557,55.152H71.678a10.429,10.429,0,0,1-6.222-2.027v1.657A23.679,23.679,0,0,1,54.88,74.541,23.68,23.68,0,0,1,44.3,54.782V53.125a10.429,10.429,0,0,1-6.222,2.027H30.2A17.633,17.633,0,0,1,12.576,37.525V34H2v3.525A31.731,31.731,0,0,0,33.728,69.253l3.543.018h.018l-.035.441a9.846,9.846,0,0,0,.353,2.573l3.173,11.07h28.2l3.173-11.07a9.846,9.846,0,0,0,.353-2.573,1.861,1.861,0,0,0-.035-.441h.018l3.543-.018A31.731,31.731,0,0,0,107.76,37.525V34Z" transform="translate(-2 -34)" fill="#ff826e"/>
            </g>
            <g id="Grupo_1118585" data-name="Grupo 1118585" transform="translate(43.485 59.931)">
              <path id="Trazado_912855" data-name="Trazado 912855" d="M26.67,50H45.46a23.811,23.811,0,0,1-9.4,12.339A23.811,23.811,0,0,1,26.67,50Z" transform="translate(-26.67 -50)" fill="#e6e9ed"/>
            </g>
            <g id="Grupo_1118586" data-name="Grupo 1118586" transform="translate(42.304 43.626)">
              <path id="Trazado_912856" data-name="Trazado 912856" d="M47.152,47.977v1.657a23.781,23.781,0,0,1-1.181,7.421H27.181A23.781,23.781,0,0,1,26,49.634V47.977a10.5,10.5,0,0,0,3.948-5.641l.458-1.586a16.935,16.935,0,0,0,2.785,1.516,8.674,8.674,0,0,0,6.769,0,16.935,16.935,0,0,0,2.785-1.516l.458,1.586A10.5,10.5,0,0,0,47.152,47.977Z" transform="translate(-26 -40.75)" fill="#f0d0b4"/>
            </g>
            <g id="Grupo_1118587" data-name="Grupo 1118587" transform="translate(91.659 17.627)">
              <path id="Trazado_912857" data-name="Trazado 912857" d="M68.1,31.288V40.1H57.525L55.8,39.238a3.268,3.268,0,0,1,1.463-6.187h.264V31.27a5.288,5.288,0,0,1,10.576.018Z" transform="translate(-54 -26)" fill="#f0d0b4"/>
            </g>
            <g id="Grupo_1118588" data-name="Grupo 1118588" transform="translate(38.779 13.255)">
              <path id="Trazado_912858" data-name="Trazado 912858" d="M52.2,34.272v4.865a17.671,17.671,0,0,1-7.932,14.754,16.935,16.935,0,0,1-2.785,1.516,8.674,8.674,0,0,1-6.769,0,16.935,16.935,0,0,1-2.785-1.516A17.654,17.654,0,0,1,24,39.137V32.774a7.01,7.01,0,0,1,4.583-6.592l7.086-2.662a6.95,6.95,0,0,0,5.253,3.243l3.525.353,1.41.141A7.042,7.042,0,0,1,52.2,34.272Z" transform="translate(-24 -23.52)" fill="#f0d0b4"/>
            </g>
            <g id="Grupo_1118589" data-name="Grupo 1118589" transform="translate(0 17.627)">
              <path id="Trazado_912859" data-name="Trazado 912859" d="M16.1,36.312a3.267,3.267,0,0,1-1.8,2.926l-1.727.864H2V31.288a5.288,5.288,0,0,1,10.576-.018v1.78h.264A3.265,3.265,0,0,1,16.1,36.312Z" transform="translate(-2 -26)" fill="#f0d0b4"/>
            </g>
          </g>
          <g id="Grupo_1118591" data-name="Grupo 1118591" transform="translate(0.586 1.293)">
            <circle id="Elipse_11821" data-name="Elipse 11821" cx="1.763" cy="1.763" r="1.763" transform="translate(46.559 48.838)"/>
            <circle id="Elipse_11822" data-name="Elipse 11822" cx="1.763" cy="1.763" r="1.763" transform="translate(60.66 48.838)"/>
            <path id="Trazado_912860" data-name="Trazado 912860" d="M29,36.525v3.525h7.051A7.058,7.058,0,0,0,43.1,33H39.576a3.529,3.529,0,0,1-3.525,3.525Z" transform="translate(21.084 22.889)"/>
            <path id="Trazado_912861" data-name="Trazado 912861" d="M103.524,43.081A7.033,7.033,0,0,0,96.5,50.1v.257a5.032,5.032,0,0,0-.744,9.3l.744.37V62.47A15.881,15.881,0,0,1,80.636,78.334H79.6a2.494,2.494,0,0,1,0-3.525l1.033-1.033a6.017,6.017,0,0,0,0-8.51l-.73-.73a3.552,3.552,0,0,1-1.033-2.492V48.369a22.835,22.835,0,0,0-28.2-22.275V16.641H86.957L84.678,18.92l2.492,2.492L93.7,14.878,87.17,8.344l-2.492,2.492,2.279,2.279H50.67V11.353a5.294,5.294,0,0,0-5.288-5.288H12.621L14.9,3.785,12.408,1.293,5.874,7.827l6.534,6.534L14.9,11.869,12.621,9.59H45.382a1.763,1.763,0,0,1,1.763,1.763v1.763H24.23A5.294,5.294,0,0,0,18.942,18.4v7.051H7.333l2.279-2.279L7.12,20.682.586,27.217,7.12,33.751l2.492-2.492L7.333,28.979H18.942V32.5h3.525V28.979H24.23a1.763,1.763,0,0,1,1.763,1.763v26.44h3.525V30.742a5.294,5.294,0,0,0-5.288-5.288H22.468V18.4a1.763,1.763,0,0,1,1.763-1.763H47.145V27.222a22.948,22.948,0,0,0-14.1,21.148V62.043a3.552,3.552,0,0,1-1.033,2.492l-.73.73a6.017,6.017,0,0,0,0,8.51l1.033,1.033a2.494,2.494,0,0,1,0,3.525H31.281A15.881,15.881,0,0,1,15.417,62.47V60.034l.744-.372a5.032,5.032,0,0,0-.744-9.3V50.1a7.051,7.051,0,0,0-14.1.028V62.479A33.53,33.53,0,0,0,34.8,95.969h1.863A11.189,11.189,0,0,0,37,97.706l3.531,12.356H71.389l3.531-12.355a11.252,11.252,0,0,0,.337-1.738h1.863A33.53,33.53,0,0,0,110.6,62.479V50.131a7.071,7.071,0,0,0-7.077-7.051ZM98.005,53.657h2.02V50.1a3.5,3.5,0,0,1,3.5-3.5,3.541,3.541,0,0,1,3.552,3.525v7.051h-8.4l-1.347-.673a1.506,1.506,0,0,1,.673-2.852Zm-63.2,18.66-1.033-1.033a2.494,2.494,0,0,1,0-3.525l.73-.73a7.093,7.093,0,0,0,2.066-4.985V48.37a19.389,19.389,0,1,1,38.779,0V62.043a7.093,7.093,0,0,0,2.066,4.985l.73.73a2.494,2.494,0,0,1,0,3.525L77.11,72.316a5.866,5.866,0,0,0-1.472,6.018H72.748a8.848,8.848,0,0,1-8.473-6.393l-.111-.39A19.412,19.412,0,0,0,71.822,56.1V51.224a8.79,8.79,0,0,0-7.936-8.771l-.617-.062a10.262,10.262,0,0,1-2.024-6.058V32.5H57.721v3.829a13.782,13.782,0,0,0,1.209,5.623A5.27,5.27,0,0,1,54.2,36.7V32.5H50.67v4.2a8.9,8.9,0,0,0,.446,2.789l-5.3,1.988a8.857,8.857,0,0,0-5.718,8.253v6.365a19.416,19.416,0,0,0,7.659,15.457l-.111.39a8.85,8.85,0,0,1-8.473,6.393H36.278a5.866,5.866,0,0,0-1.472-6.018ZM55.958,97.275a21.9,21.9,0,0,1-6.765-8.366H62.722A21.863,21.863,0,0,1,55.958,97.275Zm8.813-17.551a22.019,22.019,0,0,1-.753,5.66H47.9a22.019,22.019,0,0,1-.753-5.66V78.87a12.271,12.271,0,0,0,3.675-5.4c.349.174.7.347,1.061.5a10.345,10.345,0,0,0,8.154,0c.361-.155.712-.328,1.061-.5a12.266,12.266,0,0,0,3.675,5.4ZM63.536,45.962A5.27,5.27,0,0,1,68.3,51.224V56.1a15.907,15.907,0,0,1-9.651,14.637,6.879,6.879,0,0,1-5.378,0A15.909,15.909,0,0,1,43.62,56.1V49.731a5.314,5.314,0,0,1,3.432-4.953l5.856-2.2a8.792,8.792,0,0,0,5.7,2.889Zm-55.143.643a3.5,3.5,0,0,1,3.5,3.5v3.552h2.02a1.5,1.5,0,0,1,.672,2.852l-1.345.673h-8.4V50.131a3.541,3.541,0,0,1,3.552-3.525Zm32,50.13a7.549,7.549,0,0,1-.294-2.089,7.634,7.634,0,0,1,.8-3.4L41.67,89.7,38.517,88.12l-.772,1.546a11.166,11.166,0,0,0-.94,2.776H34.8A30,30,0,0,1,4.841,62.479V60.707h7.051V62.47A19.412,19.412,0,0,0,31.281,81.859h7.888a12.206,12.206,0,0,0,4.528-.906,25.4,25.4,0,0,0,10.5,19.4v6.18H43.188Zm36.73-4.292H75.112a11.1,11.1,0,0,0-.94-2.776L73.4,88.122,70.247,89.7l.772,1.546a7.594,7.594,0,0,1,.509,5.494l-2.8,9.8H57.721v-6.18a25.393,25.393,0,0,0,10.5-19.4,12.2,12.2,0,0,0,4.527.906h7.888A19.412,19.412,0,0,0,100.025,62.47V60.707h7.051v1.771A30,30,0,0,1,77.119,92.444Z" transform="translate(-0.586 -1.293)"/>
            <path id="Trazado_912862" data-name="Trazado 912862" d="M51.613,14.785,49.12,12.293l-6.534,6.534,6.534,6.534,2.492-2.492L49.333,20.59H62.705a1.763,1.763,0,0,1,1.763,1.763v1.763H55.654A5.294,5.294,0,0,0,50.366,29.4V43.5h3.525V29.4a1.763,1.763,0,0,1,1.763-1.763h8.813v3.525h3.525V27.641h4.558L70.272,29.92l2.492,2.492L79.3,25.878l-6.534-6.534-2.492,2.492,2.279,2.279H67.993V22.353a5.294,5.294,0,0,0-5.288-5.288H49.333Z" transform="translate(31.446 7.096)"/>
          </g>
        </g>
      </g>
    </g>
  </g>
</svg>
